<svg xmlns="http://www.w3.org/2000/svg" width="48" height="48" version="1"><rect style="opacity:.2" width="40" height="26" x="4" y="17" rx="2" ry="2"/><path style="fill:#5d399b" d="M4 34c0 1.108.892 2 2 2h36c1.108 0 2-.892 2-2V12c0-1.108-.892-2-2-2H24c-3 0-4-4-7-4H6c-1.108 0-2 .892-2 2"/><rect style="opacity:.2" width="40" height="26" x="4" y="15" rx="2" ry="2"/><rect style="fill:#e4e4e4" width="36" height="16" x="6" y="13" rx="2" ry="2"/><rect style="fill:#7e57c2" width="40" height="26" x="4" y="16" rx="2" ry="2"/><path style="opacity:.1;fill:#fff" d="M6 6c-1.108 0-2 .892-2 2v1c0-1.108.892-2 2-2h11c3 0 4 4 7 4h18c1.108 0 2 .892 2 2v-1c0-1.108-.892-2-2-2H24c-3 0-4-4-7-4Z"/><path style="fill:#2c1e44" d="M19.78 23.002c-.24 0-.52.07-.81.221-1.03.551-1.99 2.334-2.51 4.659-.44 1.984-.6 4.679-.34 5.763.23.942.63 1.355 1.34 1.355 1.04-.02 2.35-1.185 3.19-2.759.6-.872 2-1.263 3.35-1.223 1.34-.05 2.74.351 3.34 1.223.84 1.574 2.15 2.739 3.2 2.759.7 0 1.1-.413 1.33-1.355.26-1.084.1-3.779-.34-5.763-.52-2.325-1.48-4.108-2.51-4.659-.57-.311-1.04-.301-1.46 0-.53.381-1.63.78-3.56.78-1.94 0-3.04-.399-3.57-.78a1.058 1.058 0 0 0-.65-.221Zm.25 3.006h.99v1.002h.99v1.002h-.99v1.002h-.99v-1.002h-.99V27.01h.99Zm7.44 0c.27 0 .49.22.49.501a.494.494 0 1 1-.99 0c0-.281.22-.501.5-.501Zm-.99 1.002c.27 0 .49.22.49.501a.494.494 0 1 1-.99 0c0-.281.22-.501.5-.501Zm1.98 0c.27 0 .49.22.49.501a.494.494 0 1 1-.99 0c0-.281.22-.501.5-.501Zm-.99 1.002c.27 0 .49.22.49.501a.494.494 0 1 1-.99 0c0-.281.22-.501.5-.501Z"/></svg>