<svg xmlns="http://www.w3.org/2000/svg" width="600mm" height="400mm" viewBox="0 0 600 400"><rect width="600" height="400" fill="#fff" rx="46.417" ry="46.417"/><path fill="#de0130" d="M131.157 33.421A105.833 105.833 0 0 1 228.334 97.333L189.464 114.102A63.5 63.5 0 0 0 131.156 75.755z"/><path fill="#10c800" d="M228.334 97.333A105.833 105.833 0 0 1 228.337 181.168L189.465 164.403A63.5 63.5 0 0 0 189.463 114.102z"/><path fill="#2030c0" d="M228.337 181.168A105.833 105.833 0 0 1 73.01 227.683L96.269 192.312A63.5 63.5 0 0 0 189.465 164.402z"/><path fill="#ea0" d="M73.01 227.683A105.833 105.833 0 0 1 26.93 120.891L68.62 128.237A63.5 63.5 0 0 0 96.27 192.312z"/><path fill="#9414cf" d="M26.93 120.891A105.833 105.833 0 0 1 131.138 33.421L131.146 75.755A63.5 63.5 0 0 0 68.62 128.237z"/><path fill="#2030c0" d="M52.279 372.626H80.41V372.4Q80.41 368.773 76.718 368.773H55.97Q52.28 368.773 52.28 372.4zM87.443 372.626H115.574V366.138Q115.574 362.51 111.882 362.51H91.135Q87.443 362.51 87.443 366.138zM122.607 372.626H150.738V349.023Q150.738 345.396 147.046 345.396H126.299Q122.607 345.396 122.607 349.023zM157.771 372.626H185.902V328.406Q185.902 324.778 182.21 324.778H161.463Q157.771 324.778 157.771 328.406zM192.935 372.626H221.066V330.706Q221.066 327.08 217.374 327.08H196.627Q192.935 327.079 192.935 330.706zM228.1 372.626H256.23V296.386Q256.23 292.76 252.539 292.76H231.791Q228.1 292.759 228.1 296.386zM263.263 372.626H291.395V293.168Q291.395 289.541 287.702 289.541H266.956Q263.263 289.54 263.263 293.168zM298.427 372.626H326.56V286.13Q326.559 282.502 322.866 282.502H302.12Q298.427 282.502 298.427 286.13zM333.591 372.626H361.723V286.424Q361.723 282.797 358.03 282.797H337.284Q333.59 282.797 333.59 286.424zM368.756 372.626H396.886V255.618Q396.887 251.99 393.196 251.99H372.448Q368.756 251.99 368.756 255.618zM403.92 372.626H432.05V264.798Q432.05 261.17 428.36 261.17H407.612Q403.92 261.17 403.92 264.798zM439.084 372.626H467.215V255.85Q467.215 252.223 463.523 252.223H442.776Q439.084 252.223 439.084 255.85zM474.248 372.626H502.379V232.952Q502.38 229.324 498.687 229.324H477.94Q474.248 229.324 474.248 232.952zM509.412 372.626H537.543V164.664Q537.543 161.036 533.851 161.036H513.104Q509.412 161.036 509.412 164.664zM544.576 372.626H572.707V186.023Q572.707 182.395 569.015 182.395H548.268Q544.576 182.395 544.576 186.023z"/><path d="M313.411 45.914Q313.411 44.964 313.453 44.095 313.494 43.227 313.783 42.318 314.321 40.458 315.437 38.804 316.595 37.109 317.877 35.579 318.454 34.917 319.074 34.463 319.695 34.008 320.522 33.47 322.3 32.27 324.325 31.486 326.392 30.66 328.625 30.66 330.94 30.66 333.09 31.031T337.307 32.602Q337.389 32.644 337.72 32.933 338.092 33.223 338.175 33.305 339.498 34.256 340.779 35.125 342.102 35.991 343.177 37.19 343.177 37.233 343.342 37.44 343.508 37.605 343.673 37.853 343.88 38.1 344.086 38.39 344.293 38.638 344.376 38.762 344.417 38.845 344.54 39.052 344.707 39.258 344.748 39.3 344.789 39.34 344.996 39.589 345.244 39.796 345.286 39.879 345.325 39.918 345.285 40.25V40.58Q345.285 40.664 345.45 41.12 345.616 41.532 345.657 41.615 345.657 41.656 345.7 41.863 345.74 42.028 345.78 42.235 345.864 42.442 345.905 42.648 345.988 42.814 345.988 42.855 346.03 42.938 346.154 43.227 346.319 43.517 346.319 43.6V44.716Q346.36 44.88 346.402 45.086 346.442 45.294 346.442 45.501 346.485 45.666 346.485 45.708V46.08Q346.526 46.37 346.526 46.782V47.568Q346.566 47.94 346.566 48.188 346.567 49.842 346.444 51.785 346.319 53.728 345.657 55.216 345.575 55.34 345.451 55.588 345.327 55.836 345.203 56.126 345.079 56.415 344.913 56.663 344.79 56.911 344.748 57.035 344.707 57.118 344.54 57.325 344.417 57.49 344.376 57.572 343.425 58.73 342.309 59.846 341.234 60.962 340.159 61.996 339.456 62.657 338.505 63.154 337.555 63.65 336.77 64.104 335.487 64.807 333.751 65.014 332.056 65.179 330.691 65.179 328.047 65.18 325.649 64.56 323.251 63.94 321.06 62.533 320.894 62.451 320.605 62.285L320.109 61.955Q319.86 61.748 319.654 61.624 319.489 61.5 319.447 61.459 319.406 61.459 318.992 61.128 318.62 60.756 318.082 60.26 317.546 59.764 316.968 59.268 316.429 58.77 316.057 58.44 316.1 58.44 315.975 58.317L315.892 58.234Q315.85 58.151 315.726 57.738 315.602 57.283 315.561 57.2 315.065 56.002 314.57 54.927 314.073 53.852 313.783 52.57 313.743 52.53 313.743 52.24 313.782 51.95 313.782 51.909 313.618 50.379 313.494 48.932 313.411 47.444 313.411 45.914zM321.06 50.668Q321.101 50.751 321.225 50.958 321.349 51.123 321.349 51.206 321.432 51.247 321.473 51.496 321.514 51.701 321.556 51.742 321.597 51.826 321.72 52.157 321.886 52.487 322.051 52.9L322.383 53.645Q322.548 54.017 322.63 54.182 323.21 55.547 323.953 56.332 324.697 57.118 325.607 57.49 326.557 57.862 327.674 57.986 328.832 58.068 330.196 58.068 332.594 58.068 334.536 57.324 336.522 56.54 338.052 54.554 338.092 54.472 338.216 54.265 338.34 54.058 338.34 54.017 338.836 52.735 338.877 51.454 338.92 50.13 338.92 48.767V48.312Q338.919 47.982 338.877 47.609V46.41Q338.795 45.914 338.588 45.005 338.381 44.095 338.051 43.145 337.72 42.151 337.307 41.324 336.893 40.5 336.438 40.21 336.397 40.21 336.148 40.168 335.902 40.085 335.902 40.044 335.86 40.002 335.736 39.796 335.612 39.548 335.529 39.506 335.488 39.424 335.363 39.3 335.24 39.134 335.157 39.134 333.999 38.431 332.594 38.101 331.229 37.729 329.865 37.729 328.005 37.729 326.351 38.266 324.697 38.803 323.416 39.878 322.176 40.912 321.432 42.441 320.687 43.971 320.687 45.955 320.687 47.113 320.811 48.312 320.935 49.469 321.06 50.668zM353.223 39.878Q353.223 38.762 353.76 38.597 354.298 38.39 355.207 38.39 355.373 38.39 355.662 38.431 355.992 38.473 356.034 38.473 356.53 38.514 357.316 38.597 358.142 38.638 358.928 38.72 359.713 38.804 360.25 38.886L360.83 38.97 360.995 39.134V46.328Q361.036 47.113 361.078 47.98 361.118 48.808 361.118 49.552 361.16 50.255 361.16 50.462 361.16 50.586 361.202 50.958 361.284 51.33 361.326 51.826 361.408 52.281 361.45 52.776 361.49 53.233 361.532 53.48 361.74 54.885 362.276 55.877 362.856 56.828 364.178 57.407 364.302 57.448 364.716 57.572 365.129 57.655 365.253 57.738H365.336Q367.32 57.738 368.27 56.538 369.22 55.34 369.51 53.48V50.048Q369.511 48.105 369.47 46.576 369.47 45.005 369.304 43.062 369.304 42.938 369.264 42.524 369.221 42.111 369.138 41.656 369.098 41.16 369.056 40.746 369.016 40.334 369.016 40.21 369.015 40.085 369.055 39.465 369.098 38.845 369.14 38.597 369.14 38.556 369.222 38.43 369.304 38.307 369.304 38.225 370.007 38.059 370.462 38.1H372.86Q373.15 38.1 373.81 38.142 374.514 38.142 375.259 38.183 376.043 38.183 376.705 38.225H377.614Q377.862 38.39 377.986 38.72 378.11 39.01 378.11 39.382 378.151 39.713 378.151 40.085V40.664Q378.151 43.888 377.862 46.989 377.614 50.089 377.077 53.314 377.077 53.397 376.953 53.934 376.87 54.43 376.746 55.134 376.622 55.793 376.456 56.496 376.332 57.16 376.25 57.572 375.878 59.061 375.216 60.301 374.596 61.5 373.604 62.699 372.612 63.815 371.454 64.269 370.338 64.725 369.015 65.18 368.808 65.22 368.56 65.262 368.312 65.344 368.27 65.344H363.146Q362.938 65.344 362.442 65.22T361.698 64.972Q359.96 64.146 358.473 63.112 356.985 62.037 355.703 60.59 355.373 60.177 355.124 59.557 354.918 58.937 354.835 58.44L354.505 57.118Q354.297 56.249 354.09 55.423 353.926 54.554 353.761 53.893 353.594 53.23 353.594 53.107 353.595 53.025 353.554 52.735L353.47 52.074Q353.47 51.702 353.43 51.412 353.388 51.082 353.388 51 353.388 50.834 353.306 50.296 353.264 49.76 353.223 49.552zM388.983 64.972Q389.065 60.384 388.983 55.795 388.94 51.205 388.61 46.617 388.487 46.576 388.115 46.576 387.743 46.534 387.288 46.493 386.874 46.452 386.502 46.452 386.13 46.41 385.965 46.41 385.882 46.41 385.51 46.37 385.18 46.286 385.097 46.079 384.849 44.758 384.766 43.435 384.725 42.11 384.725 40.788 384.725 40.333 384.807 40.085 384.89 39.795 385.262 39.506 386.13 39.424 387.082 39.341 388.072 39.258 388.981 39.134V38.224Q388.983 36.985 388.86 35.704 388.735 34.38 388.735 33.057V32.024Q388.776 31.444 388.983 30.99 390.264 30.825 391.38 30.825H395.515L395.887 30.99Q395.887 31.031 395.969 31.57 396.052 32.106 396.052 32.437 396.052 32.809 396.093 33.801 396.176 34.752 396.217 35.868 396.3 36.985 396.341 37.977 396.424 38.927 396.424 39.3H400.517V46.08L400.434 46.162Q400.393 46.204 400.351 46.204 400.311 46.204 400.311 46.244 399.565 46.577 398.614 46.659 397.665 46.7 396.962 46.782V61.624Q396.962 62.037 396.92 62.657 396.88 63.237 396.838 63.815 396.838 64.352 396.796 64.765L396.755 65.18 396.425 65.344H390.222Q390.1 65.344 389.686 65.262 389.314 65.22 389.19 65.179 388.983 65.096 388.983 64.972zM407.545 62.864V61.334Q407.586 60.26 407.586 58.978V53.48Q407.586 52.157 407.545 51.123V49.553Q407.545 49.138 407.504 47.774 407.462 46.41 407.38 44.59 407.297 42.772 407.214 40.747 407.132 38.68 407.05 36.86 406.966 35.041 406.884 33.72 406.843 32.354 406.843 31.899V30.99Q406.843 30.907 406.926 30.66 406.966 30.534 407.008 30.452L408.083 30.287H413.747Q413.912 30.287 414.077 30.618 414.244 30.908 414.244 30.99 414.284 31.155 414.284 31.57 414.325 31.94 414.367 32.437 414.408 32.892 414.408 33.305 414.45 33.677 414.45 33.843V36.654Q414.45 37.109 414.491 38.224L414.573 40.54Q414.656 41.739 414.697 42.814 414.78 43.847 414.78 44.26V44.509Q414.821 44.674 414.863 44.88L414.946 45.294Q414.987 45.501 414.987 45.542 415.194 47.526 415.235 49.594 415.318 51.619 415.318 53.644V54.018Q415.318 54.596 415.277 56.043 415.277 57.448 415.235 59.06 415.235 60.673 415.195 62.12 415.152 63.525 415.152 64.104 415.07 64.476 414.863 64.642 414.657 64.807 414.367 64.89 414.12 64.93 413.79 64.972H413.209Q413.128 64.972 412.797 65.014 412.506 65.055 412.135 65.096L411.474 65.18H408.084L407.753 64.807zM421.932 48.725Q422.552 45.831 423.916 43.765 425.322 41.655 427.306 40.332 429.29 39.01 431.729 38.39 434.21 37.73 437.021 37.73H438.261Q440.907 38.019 442.851 39.299 444.792 40.54 446.074 42.443 447.398 44.343 448.018 46.7 448.679 49.056 448.679 51.537 448.68 52.818 448.596 54.1 448.514 55.38 448.306 56.663 447.977 58.399 447.192 59.68 446.405 60.962 445.289 62.327 444.834 62.864 444.09 63.4 443.346 63.898 442.436 64.352 441.568 64.766 440.66 65.055 439.79 65.345 439.088 65.345H437.186Q435.491 65.344 434.044 65.178 432.64 64.972 430.944 64.642 430.902 64.6 430.696 64.559 430.489 64.476 430.406 64.435 430.282 64.394 429.993 64.27 429.703 64.146 429.332 63.98 429 63.773 428.712 63.608 428.421 63.443 428.297 63.36 428.215 63.32 428.008 63.236 427.803 63.112 427.762 63.071 427.596 62.905 427.182 62.533 426.81 62.12 426.355 61.665 425.942 61.17 425.528 60.797L424.95 60.218Q424.08 59.308 423.46 58.192 422.883 57.035 422.551 55.836 422.222 54.596 422.057 53.356 421.932 52.074 421.932 50.834zM429.869 50.38V51.454Q429.869 51.826 430.076 52.446 430.117 52.57 430.2 52.942 430.324 53.272 430.448 53.686 430.613 54.1 430.738 54.513 430.86 54.927 430.943 55.092 430.985 55.133 431.027 55.257 431.11 55.381 431.151 55.423 431.234 55.547 431.441 55.795L431.937 56.29Q432.185 56.539 432.39 56.787 432.64 56.994 432.722 57.035 432.805 57.035 433.094 57.242 433.425 57.448 433.632 57.572 434.128 57.862 434.582 57.986 435.038 58.068 435.617 58.068 437.807 58.068 439.171 57.158 440.577 56.209 441.404 54.183 441.734 53.356 441.734 52.405 441.777 51.454 441.777 50.585 441.776 50.504 441.735 50.339V50.09Q441.404 48.23 440.246 47.072 439.09 45.872 437.352 45.17 436.898 44.963 436.402 44.963H435.492Q432.888 44.963 431.358 46.37 429.87 47.733 429.87 50.379zM455.211 48.725Q455.831 45.831 457.195 43.765 458.601 41.655 460.585 40.332 462.57 39.01 465.01 38.39 467.489 37.73 470.3 37.73H471.54Q474.187 38.019 476.13 39.299 478.073 40.54 479.354 42.443 480.677 44.343 481.297 46.7 481.96 49.056 481.96 51.537 481.959 52.818 481.876 54.1 481.793 55.38 481.586 56.663 481.256 58.399 480.47 59.68 479.685 60.962 478.568 62.327 478.114 62.864 477.37 63.4 476.625 63.898 475.716 64.352 474.848 64.766 473.938 65.055 473.07 65.345 472.368 65.345H470.465Q468.77 65.344 467.324 65.178 465.918 64.972 464.224 64.642 464.181 64.6 463.974 64.559 463.768 64.476 463.685 64.435 463.563 64.394 463.273 64.27T462.611 63.98Q462.281 63.773 461.991 63.608T461.578 63.36Q461.495 63.32 461.288 63.236 461.08 63.112 461.04 63.071 460.875 62.905 460.46 62.533 460.09 62.12 459.634 61.665 459.221 61.17 458.808 60.797L458.228 60.218Q457.362 59.308 456.74 58.192 456.162 57.035 455.831 55.836 455.501 54.596 455.335 53.356 455.21 52.074 455.21 50.834zM463.15 50.38V51.454Q463.149 51.826 463.355 52.446 463.397 52.57 463.48 52.942 463.603 53.272 463.727 53.686 463.893 54.1 464.017 54.513 464.141 54.927 464.224 55.092 464.265 55.133 464.307 55.257 464.389 55.381 464.43 55.423 464.513 55.547 464.72 55.795L465.215 56.29Q465.464 56.539 465.671 56.787 465.919 56.994 466.001 57.035 466.086 57.035 466.375 57.242 466.704 57.448 466.91 57.572 467.407 57.862 467.862 57.986 468.317 58.068 468.896 58.068 471.086 58.068 472.45 57.158 473.857 56.209 474.683 54.183 475.014 53.356 475.014 52.405 475.055 51.454 475.055 50.585 475.055 50.504 475.015 50.339V50.09Q474.682 48.23 473.524 47.072 472.369 45.872 470.633 45.17 470.177 44.963 469.682 44.963H468.771Q466.167 44.963 464.638 46.37 463.149 47.733 463.149 50.379zM497.296 54.844Q497.296 57.324 497.586 59.764 497.874 62.16 497.874 64.641 497.875 64.89 497.834 65.096 497.834 65.262 497.503 65.386H496.428Q495.684 65.427 494.816 65.468 493.989 65.51 493.204 65.51 492.459 65.55 492.17 65.55H491.22Q490.681 65.551 490.31 65.51 489.979 65.51 489.772 65.386 489.565 65.262 489.442 64.972 489.358 64.683 489.358 64.104 489.359 63.567 489.317 62.161 489.317 60.714 489.277 58.73 489.234 56.746 489.192 54.39 489.153 51.99 489.07 49.551 489.03 47.072 488.987 44.715 488.945 42.317 488.904 40.333 488.863 38.35 488.82 36.943V31.031Q488.904 30.66 489.193 30.535 489.483 30.494 490.268 30.494 491.053 30.453 491.922 30.453 492.79 30.41 493.575 30.41 494.361 30.37 494.65 30.37H495.27Q495.808 30.37 496.304 30.411 496.84 30.453 497.13 31.031 497.089 33.264 497.17 35.455 497.297 37.605 497.297 39.837 497.296 40.457 497.213 41.077T497.13 42.317V44.592Q497.171 45.75 497.502 46.824L506.35 37.439 513.956 39.217V39.424Q513.956 39.878 513.626 40.374 513.293 40.872 513.045 41.16L503.496 50.668Q503.457 50.71 503.622 50.958 503.827 51.206 504.075 51.537 504.323 51.867 504.613 52.239 504.902 52.57 505.109 52.777 505.233 52.9 505.688 53.397 506.142 53.852 506.68 54.43 507.217 54.968 507.672 55.464 508.168 55.919 508.292 56.043 508.416 56.167 508.912 56.787 509.408 57.366 509.946 58.068 510.524 58.73 511.02 59.35 511.517 59.929 511.64 60.053 511.806 60.218 512.178 60.673 512.592 61.086 513.046 61.583 513.501 62.078 513.873 62.491 514.287 62.905 514.493 63.071 514.658 63.36 514.741 63.567 514.865 63.732 514.865 63.98 514.865 64.187 514.658 64.311 514.493 64.435 514.286 64.476 513.13 64.766 511.89 64.848 510.689 64.931 509.49 65.18 509.408 65.18 509.077 65.262 508.788 65.344 508.416 65.427 508.086 65.551 507.755 65.634 507.465 65.717 507.383 65.717H507.3Q506.969 65.717 506.72 65.386 506.39 65.014 505.854 64.435 505.315 63.815 504.778 63.236 504.282 62.616 503.91 62.203 503.538 61.748 503.496 61.706 503.372 61.582 503 61.086 502.67 60.59 502.256 60.012 501.843 59.432 501.471 58.937L501.057 58.317Q500.933 58.11 500.52 57.655 500.106 57.2 499.982 57.076L497.295 54.39zM520.695 51.867Q520.695 51.495 521.026 51.04 521.398 50.586 521.853 50.172 522.349 49.718 522.845 49.428 523.382 49.098 523.713 49.056H524.788Q526.07 49.056 527.144 49.511 528.261 49.924 528.84 51.206 528.922 51.288 528.963 51.496 529.005 51.66 529.005 51.701V54.348Q529.005 54.43 528.798 54.844 528.59 55.216 528.468 55.423 527.887 56.539 526.895 56.953 525.946 57.365 524.705 57.365 524.209 57.366 523.506 57.118 522.845 56.828 522.225 56.415 521.605 55.96 521.15 55.38 520.736 54.803 520.695 54.224V53.024zM520.86 42.442Q520.86 40.705 521.977 39.589 523.093 38.431 524.829 38.431 527.144 38.431 528.26 39.424 529.377 40.416 529.377 42.73 529.377 43.93 528.674 44.88 528.012 45.79 527.062 46.41 526.648 46.7 526.11 46.74 525.573 46.782 525.077 46.782 523.92 46.782 523.01 46.162 522.1 45.501 521.398 44.632 520.984 44.179 520.902 43.6 520.86 43.02 520.86 42.442z" aria-label="Outlook:" font-family="KG HAPPY Solid" font-size="10.583" style="line-height:1.25;-inkscape-font-specification:'KG HAPPY Solid, Normal'"/><path d="M287.532 99.87V111.175H294.229Q297.6 111.176 299.211 109.79 300.844 108.385 300.844 105.512 300.844 102.618 299.21 101.254 297.598 99.87 294.229 99.87zM287.532 87.176V96.48H293.712Q296.772 96.48 298.26 95.342 299.769 94.185 299.769 91.828 299.769 89.493 298.259 88.335 296.773 87.177 293.713 87.177zM283.357 83.747H294.022Q298.797 83.746 301.382 85.73 303.964 87.715 303.964 91.374 303.965 94.205 302.642 95.88 301.32 97.554 298.756 97.967 301.836 98.63 303.531 100.737 305.247 102.825 305.247 105.967 305.247 110.1 302.435 112.354 299.625 114.607 294.435 114.607H283.358zM325.648 95.012Q325.008 94.639 324.243 94.474 323.499 94.288 322.589 94.288 319.365 94.288 317.63 96.396 315.912 98.484 315.912 102.412V114.607H312.089V91.457H315.913V95.052Q317.11 92.945 319.033 91.932 320.957 90.898 323.706 90.898 324.098 90.898 324.573 90.96 325.05 91.001 325.628 91.105zM329.638 91.456H333.44V114.607H329.638zM329.638 82.444H333.44V87.26H329.638zM356.633 102.763Q356.633 98.629 354.918 96.355 353.223 94.081 350.143 94.081 347.083 94.081 345.368 96.355 343.673 98.63 343.673 102.763 343.673 106.876 345.368 109.15 347.084 111.424 350.143 111.424 353.223 111.424 354.918 109.15 356.633 106.876 356.633 102.763zM360.437 111.734Q360.437 117.646 357.812 120.519 355.187 123.413 349.77 123.413 347.766 123.413 345.988 123.103 344.21 122.813 342.536 122.193V118.493Q344.21 119.403 345.843 119.837 347.476 120.27 349.171 120.27 352.913 120.27 354.773 118.307 356.633 116.364 356.633 112.417V110.534Q355.455 112.582 353.616 113.595 351.776 114.606 349.213 114.606 344.955 114.607 342.35 111.362 339.746 108.117 339.746 102.763 339.746 97.389 342.35 94.143 344.955 90.898 349.213 90.898 351.776 90.898 353.616 91.911 355.456 92.924 356.633 94.971V91.455H360.437zM387.515 100.634V114.607H383.712V100.758Q383.712 97.471 382.43 95.838 381.15 94.205 378.586 94.205 375.506 94.205 373.728 96.17 371.95 98.133 371.95 101.523V114.607H368.126V82.444H371.95V95.053Q373.315 92.965 375.154 91.932 377.014 90.898 379.433 90.898 383.423 90.898 385.469 93.378 387.515 95.839 387.515 100.635zM398.863 84.883V91.456H406.697V94.412H398.863V106.98Q398.863 109.812 399.628 110.618 400.414 111.424 402.791 111.424H406.697V114.607H402.791Q398.388 114.607 396.714 112.974 395.039 111.321 395.039 106.98V94.412H392.25V91.456H395.039V84.883zM436.876 82.444V85.606H433.238Q431.192 85.606 430.386 86.433 429.6 87.26 429.6 89.41V91.456H435.863V94.412H429.6V114.607H425.776V94.412H422.138V91.456H425.776V89.844Q425.776 85.979 427.575 84.222 429.373 82.444 433.28 82.444zM439.667 105.47V91.457H443.47V105.326Q443.47 108.613 444.752 110.266 446.033 111.9 448.597 111.9 451.677 111.9 453.454 109.936 455.252 107.972 455.252 104.582V91.456H459.056V114.607H455.252V111.052Q453.868 113.16 452.028 114.194 450.208 115.207 447.79 115.207 443.801 115.207 441.734 112.727 439.667 110.245 439.667 105.47zM449.237 90.899zM470.652 84.883V91.456H478.486V94.412H470.652V106.98Q470.652 109.812 471.417 110.618 472.202 111.424 474.579 111.424H478.486V114.607H474.58Q470.177 114.607 468.502 112.974 466.828 111.321 466.828 106.98V94.412H464.038V91.456H466.827V84.883zM483.096 105.47V91.457H486.899V105.326Q486.899 108.613 488.181 110.266 489.462 111.9 492.025 111.9 495.105 111.9 496.883 109.936 498.68 107.972 498.68 104.582V91.456H502.485V114.607H498.68V111.052Q497.296 113.16 495.457 114.194 493.637 115.207 491.219 115.207 487.23 115.207 485.163 112.727 483.096 110.245 483.096 105.47zM492.666 90.899zM523.734 95.012Q523.093 94.639 522.328 94.474 521.584 94.288 520.675 94.288 517.45 94.288 515.714 96.396 513.998 98.484 513.998 102.412V114.607H510.174V91.457H513.998V95.052Q515.197 92.945 517.119 91.932 519.042 90.898 521.791 90.898 522.184 90.898 522.659 90.96 523.134 91.001 523.713 91.105zM546.595 102.08V103.942H529.108Q529.356 107.87 531.465 109.936 533.594 111.982 537.376 111.982 539.567 111.982 541.614 111.445 543.68 110.907 545.707 109.832V113.43Q543.66 114.297 541.51 114.752 539.36 115.207 537.15 115.207 531.609 115.207 528.364 111.982 525.139 108.757 525.139 103.26 525.14 97.575 528.2 94.247 531.279 90.898 536.488 90.898 541.159 90.898 543.867 93.916 546.595 96.913 546.595 102.081zM542.792 100.966Q542.751 97.843 541.035 95.983 539.34 94.123 536.529 94.123 533.346 94.123 531.423 95.92 529.522 97.72 529.233 100.985zM555.236 109.357H559.432V114.607H555.236zM555.236 83.747H559.432V97.284L559.018 104.665H555.67L555.236 97.285z" aria-label="Bright future!" font-family="Noto Emoji" font-size="10.583" style="line-height:1.25;-inkscape-font-specification:'Noto Emoji, Normal'"/></svg>