<svg xmlns="http://www.w3.org/2000/svg" width="568.533" height="571.733" viewBox="0 0 533 536"><path fill="#fff" d="M299.834 7.25C218.215 7.521 136.588 7.075 54.977 8.242 50.273 8.423 44.897 7.222 41.954 11.878 37.551 16.216 35.351 22.206 33.934 27.998 26.785 28.638 18.494 31.944 16.494 39.616A350.866 350.866 0 0 0 16.554 87.413C27.81 106.512 19.624 116.617 68.335 110.043 83.69 116.673 100.835 113.955 117.063 114.913 163.23 115.668 209.493 114.96 255.607 116.22 259.54 116.912 266.673 115.597 267.342 121.144 268.844 124.118 269.077 128.638 272.241 130.311 275.698 128.05 276.753 123.007 279.096 119.64 280.02 116.718 282.642 115.396 285.626 116.135 310.098 115.369 334.668 115.934 359.067 113.833 367.47 111.444 376.987 106.74 379.803 97.832 380.43 94.952 380.519 91.992 380.46 89.056 418.814 86.766 457.63 90.21 495.634 83.432 513.508 80.616 526.582 62.984 525.99 45.243 526.564 30.224 518.72 14.525 504.416 8.571 498.53 5.446 491.339 7.824 484.89 7.09ZM154.922 98C51.64 390 103.282 244 154.922 98z" color="#000" overflow="visible" style="isolation:auto;mix-blend-mode:normal;solid-color:#000;solid-opacity:1"/><path fill="#d40000" d="M246.288 316.676C242.903 316.781 237.588 316.635 236.8 320.911 236.362 327.483 240.963 334.383 247.791 335.19 256.82 336.279 266.031 333.57 273.941 329.323 275.722 328.375 278.814 326.253 276.95 323.98 271.872 318.718 264.169 317.054 257.09 316.94 253.493 316.74 249.89 316.63 246.288 316.675z" color="#000" overflow="visible" style="isolation:auto;mix-blend-mode:normal;solid-color:#000;solid-opacity:1"/><path fill="#b3b3b3" d="M330.117 160.346C327.064 161.084 330.332 164.392 331.877 164.971 342.381 172.299 353.83 178.11 364.595 185.02 356.168 183.575 349.465 177.418 342.237 173.245 336.264 170.258 332.001 163.526 324.931 163.092 319.533 162.44 316.391 169.604 320.426 173.182 329.052 182.492 340.004 189.474 351.112 195.45 352.261 195.555 356.182 198.21 353.156 197.331 348.306 195.847 344.015 192.738 339.127 191.506 337.332 193.792 339.804 197.431 339.742 200.116 341.204 205.333 340.762 211.02 341.826 216.197 346.386 215.305 350.216 211.31 354.55 209.412 363.267 204.194 372.804 200.645 382.153 196.855 385.533 194.304 381.358 189.838 379.824 187.34 372.056 177.553 359.58 173.446 348.864 167.819 342.692 165.275 336.674 161.722 330.117 160.345z" color="#000" overflow="visible" style="isolation:auto;mix-blend-mode:normal;solid-color:#000;solid-opacity:1"/><path fill="#b3b3b3" d="M371.257 111.042C362.816 113.802 354.172 115.877 345.189 115.912 328.542 117.046 311.671 115.944 295.08 118.04 292.41 118.023 288.022 122.406 291.196 124.413 296.507 125.642 303.43 124.111 307.665 126.483 294.023 126.127 279.363 136.494 297.925 127.902 298.925 124.308 293.377 125.559 291.443 125.704 284.993 126.333 276.653 127.32 273.403 133.729 273.187 135.245 273.187 138.56 271.135 136.031 269.928 134.831 269.876 131.647 267.36 132.8 263.406 133.994 261.26 137.86 258.546 140.369 258.71 138.694 257.474 136.024 255.67 138.07 252.018 140.331 248.847 145.674 244.083 144.811 243.57 141.426 247.197 137.2 245.008 134.246 241.833 134.726 240.701 139.268 238.603 141.386 236.305 144.419 234.048 148.143 235.92 151.988 237.198 155.09 234.933 160.172 238.328 162.07 241.895 161.66 244.078 156.811 248.198 157.843 252.952 158.597 254.704 164.06 253.32 168.113 251.462 181.14 241.556 190.649 235.93 201.975 237.387 204.438 240.913 201.057 242.928 200.63 250.982 197.583 257.477 189.613 266.54 190.036 268.07 190.76 271.257 193.652 271.704 190.29 273.058 184.48 272.816 177.382 274.84 172.29 276.397 173.857 279.095 171.9 280.377 174.255 288.126 181.425 292.917 190.997 297.292 200.402 301.615 211.86 301.55 225.031 297.748 236.611 294.374 244.295 284.334 249.88 276.492 244.857 268.44 240.996 265.081 231.934 264.987 223.576 264.444 219.972 265.164 215.876 263.734 212.539 259.826 213.437 256.927 217.479 253.153 219.137 249.746 222.024 243.844 222.65 242.01 227.036 242.084 239.06 245.065 250.965 244.016 263.05 244.999 275.571 235.978 285.656 227.963 294.154 221.261 301.135 213.471 306.944 206.073 313.176 207.413 318.55 211.645 323.446 214.361 328.5 226.147 346.102 234.456 365.902 247.304 382.89 254.07 393.155 261.554 403.695 263.894 415.917 264.778 418.383 261.633 419.773 260.43 417.494 254.997 407.549 252.27 395.603 243.898 387.507 235.233 381.334 223.953 381.147 213.846 379.164 201.208 377.508 188.55 377.024 176.214 373.67 161.62 370.265 146.328 369.001 132.425 363.153 128.961 361.883 133.02 359.634 134.56 358.85 161.039 341.11 187.48 323.176 212.4 303.268 222.445 294.418 234.263 286.248 240.118 273.81 242.946 264.838 241.483 255.114 241.786 245.837 242.221 238.975 239.926 232.019 241.192 225.3 244.842 220.933 251.128 219.746 255.137 215.613 260.273 211.038 266.257 206.469 268.785 199.875 269.447 196.89 268.803 190.225 264.29 191.66 255.886 193.901 249.386 199.96 241.53 203.283 239.003 203.965 234.915 205.845 233.052 203.375 239.125 190.735 251.301 180.212 252.006 165.36 252.772 162.257 250.965 156.942 246.934 158.95 239.602 164.363 234.217 171.902 229.127 179.327 224.504 184.61 219.444 189.92 213.75 193.733 220.552 185.326 229.675 178.372 234.824 168.72 234.314 165.6 230.649 169.135 229.135 169.777 217.37 177.217 205.445 184.471 193.72 191.93 194.504 189.515 198.645 187.496 200.999 185.824 212.294 178.298 224.65 172.026 235.644 164.327 236.404 147.333 227.783 130.833 215.789 119.255 208.099 115.043 198.746 117.328 190.363 116.738 170.339 117.085 150.179 116.748 130.26 118.425 127.771 120.624 124.98 123.342 124.157 126.467 119.675 132.967 117.477 141.19 118.518 149.104 118.476 167.338 130.15 183.118 143.695 194.23 155.891 204.043 172.131 210.445 187.714 208.082 188.807 205.287 189.136 201.726 190.575 199.137 189.041 208.202 187.764 217.398 188.55 226.642 188.59 237.546 192.137 248.139 192.103 258.997 190.687 263.409 185.23 265.063 182.347 268.437 154.875 290.547 124.04 308.157 96.408 329.97 90.108 333.184 82.862 335.55 78.636 341.699 68.796 354.777 72.34 374.642 84.452 385.091 93.872 393.942 107.342 395.954 119.157 400.009 139.515 405.87 160.537 408.932 180.99 414.31 197.858 417.1 214.503 422.13 229.238 430.963 233.811 434.058 239.974 436.285 242.64 441.291 240.385 442.982 239.52 439.56 237.683 439.15 233.535 437.01 230.537 431.872 225.673 431.557 223.32 433.274 226.864 436.654 227.029 438.799 231.995 451.902 235.666 465.559 234.68 479.648 234.668 490.375 232.894 500.84 231.381 511.312 231.786 515.525 237.675 513.94 240.499 514.56 255.75 515.102 270.945 513.437 286.213 513.844 318.836 513.38 351.496 514.367 384.096 513.042 387.252 513.205 388.05 509.584 386.26 507.47 374.576 476.145 352.152 450.592 335.996 421.726 331.294 411.846 326.461 401.57 324.192 390.91 327.382 392.939 326.924 398.225 328.6 401.462 329.425 403.767 330.06 409.268 333.777 407.401 339.629 405.42 343.309 400.07 349.304 398.37 379.994 385.61 409.82 370.223 436.812 350.746 442.73 346.45 450.304 339.507 446.861 331.428 439.485 311.742 426.084 295.304 414.674 277.91 411.987 274.366 409.288 270.775 407.459 266.803 404.21 264.553 401.004 269.373 398.312 270.647 389.18 278.18 378.81 283.96 367.275 286.777 363.153 287.662 367.32 291.648 368.564 293.277 376.87 304.235 388.167 312.876 395.086 324.849 397.624 328.317 394.563 331.715 391.532 333.27 366.565 347.874 339.147 359.492 310.64 365.032 305.049 366.524 298.074 368.157 294.97 373.505 290.869 383.697 288.949 394.601 285.618 404.998 285.146 406.617 282.827 407.024 283.48 404.766 285.451 388.198 291.782 372.282 301.512 358.73 317.612 333.622 342.186 315.521 359.53 291.41 361.77 288.192 356.628 288.207 354.687 288.381 349.505 288.89 343.055 286.9 339.96 292.311 333.23 299.963 324.263 304.83 314.985 308.6 296.966 319.265 280.483 333.685 259.551 338.182 251.806 340.363 241.554 339.76 237.338 331.714 231.81 323.028 236.55 311.588 242.65 304.513 256.624 288.849 279.102 286.487 298.882 285.876 322.396 284.577 346.144 285.736 369.48 282.195 402.126 274.35 427.19 241.768 426.006 208.19 423.95 205.04 419.369 208.074 416.327 207.559 408.813 207.726 404.502 200.335 398.475 197.071 390.223 196.087 382.308 200.34 374.642 202.855 361.123 208.02 348.36 215.123 336.528 223.327 327.479 231.01 319.388 239.775 311.67 248.707 312.74 244.82 316.836 241.96 317.386 238.052 316.252 236.357 311.04 239.88 314.411 237.419 318.597 234.341 323.512 232.14 327.421 228.824 323.64 224.139 319.408 219.132 317.869 213.23 314.023 205.01 312.742 195.619 312.512 186.542 312.675 178.358 314.866 169.351 320.602 163.162 322.25 161.934 326.495 162.976 325.475 159.644 322.795 155.273 318.585 150.498 313.223 149.843 307.483 150.886 306.283 157.9 303.581 162.106 305.432 157.521 306.211 149.565 312.601 149.251 319.404 148.233 323.161 155.68 329.011 157.696 339.002 162.224 348.974 166.806 358.86 171.562 368.01 165.52 374.56 155.514 377.784 144.937 381.05 136.153 379.789 126.217 377.274 117.41 376.155 114.873 374.547 111.003 371.258 111.042zM164.539 127.982C183.82 131.508 200.447 145.032 209.867 161.93 211.317 164.87 213.1 169.267 211.586 172.01 206.639 169.717 200.65 170.733 195.33 170.03 197.445 167.426 201.728 168.225 203.605 165.7 202.874 162.63 198.148 163.654 195.8 162.82 191.167 161.79 185.544 162.558 181.746 159.223 184.466 155.369 189.756 156.444 193.09 153.933 193.836 150.742 188.614 151.583 186.757 150.87 183.883 149.664 177.806 151.599 178.042 147.062 177.338 143.118 184.582 146.104 187.496 145.08 189.249 145.293 193.941 144.663 191.628 142.045 183.42 135.139 173.07 131.413 163.064 128.01 163.556 127.978 164.048 127.986 164.54 127.98zM335.34 128.764C335.949 129.73 333.145 128.867 335.108 128.752zM276.103 157.152C282.543 157.746 287.92 163.755 289.83 169.189 285.142 165.578 281.783 159.595 276.07 157.647 270.103 159.334 268.71 166.9 265.881 171.571 264.451 174.993 262.89 176.885 264.93 172.261 267.469 167.004 268.932 157.727 276.103 157.152zM376.295 222.65C375.383 224.92 375.976 227.574 378.676 227.94 375.102 229.218 373.673 224.173 376.296 222.65zM362.857 225.803C347.284 233.62 331.41 241.26 318.114 252.737 331.43 240.435 347.897 232.152 364.385 225.011zM393.565 230.478C396.528 230.402 394.436 233.817 392.835 232.248 390.841 231.186 391.651 230.439 393.564 230.479zM372.777 236.294C373.815 237.217 374.95 240.396 373.312 237.807 373.206 237.7 372.278 235.902 372.777 236.294zM362.691 243.552C357.9 251.798 351.017 258.628 346.362 267.008 344.503 269.748 343.234 272.835 341.356 275.56 346.636 264.69 352.948 253.853 361.078 244.84 361.485 244.489 362.458 243.54 362.691 243.552zM385.94 246.274C388.184 246.064 388.382 248.103 386.076 247.204 385.375 246.775 383.808 246.116 385.942 246.275zM297.392 247.992C295.383 252.738 290.562 255.919 286.235 258.448 282.278 259.982 277.623 259 274.392 256.324 280.641 255.95 288.422 257.76 292.865 252.042 294.235 250.88 296.752 248.207 297.392 247.992zM372.515 255.92C371.214 259.491 368.366 262.31 366.97 265.862 368.434 262.382 370.28 258.904 372.514 255.92zM283.097 274.492C268.247 276.115 254.68 283.254 242.622 291.626 251.633 283.13 262.711 275.757 275.4 275.019 277.674 274.734 282.147 274.328 283.097 274.492zM338.536 281.157C338.028 282.62 336.497 282.097 338.536 281.157zM280.232 340.98C269.73 348.66 255.76 352.348 242.856 349.474 238.376 348.36 232.407 344.996 231.287 341.177 235.517 345.512 241.13 348.527 247.35 348.125 258.62 348.36 270.545 347.038 280.229 340.893L280.232 340.98z" color="#000" overflow="visible" style="isolation:auto;mix-blend-mode:normal;solid-color:#000;solid-opacity:1"/><path fill="#fff" d="M428.58 158.198C422.774 158.356 418.81 163.408 415.173 167.291 411.18 171.611 408.885 177.083 405.668 181.931 403.5 187.187 403.903 193.072 403.56 198.639 405.245 201.495 407.845 204.052 410.843 205.527 415.704 205.467 421.035 205.27 424.91 201.9 429.465 197.905 433.458 192.91 435.433 187.127 435.727 185.633 433.748 185.251 433.073 186.434 429.09 191.383 425.95 197.488 419.952 200.384 417.235 201.94 413.696 202.381 411.092 200.318 408.455 198.848 407.472 195.785 407.807 192.914 408.372 186.264 411.298 179.977 414.973 174.494 418.216 170.72 421.932 167.076 426.583 165.122 427.407 165.082 426.703 166.994 426.077 167.157 423.217 168.5 421.202 171.262 419.2 173.638 417.787 175.891 415.585 178.206 415.673 181.011 416.36 182.693 418.146 181.156 418.753 180.218 423.073 175.557 427.246 170.66 432.285 166.75 435.353 169.504 435.28 174.073 437.095 177.559 438.186 178.967 439.534 177.142 439.364 175.921 439.933 170.041 438.643 163.03 433.466 159.465 432.031 158.51 430.288 158.134 428.58 158.198zM275.34 180.518C272.136 181.95 273.583 186.808 272.14 189.434 269.093 203.13 263.304 217.382 267.688 231.487 269.954 238.35 276.263 246.63 284.412 244.932 295.868 241.383 299.25 227.672 299.005 217.02 298.318 211.564 299.32 204.22 294.462 200.44 289.246 199.021 283.916 196.903 280.756 192.16 277.841 189.118 277.612 184.865 276.63 181.117 276.335 180.72 275.84 180.461 275.34 180.517zM317.614 172.676C314.067 174.466 314.464 179.688 313.723 183.116 312.675 195.882 316.717 208.711 322.59 219.917 324.382 222.431 325.888 226.052 328.78 227.082 332.637 223.803 338.344 221.116 339.643 215.853 339.728 208.193 339.711 200.043 336.768 192.877 332.423 188.274 323.68 189.647 321.234 182.74 319.056 180.03 321.76 173.705 317.614 172.676zM285.292 289.084C277.73 289.915 269.562 290.454 262.85 294.242 261.616 297.394 266.821 298.485 268.802 299.846 274.26 301.918 280.944 305.703 286.675 302.727 289.21 299.377 292.601 294.2 290.283 289.997 289.02 288.735 286.885 289.142 285.293 289.084zM307.535 287.547C302.656 287.336 297.157 288.09 294.545 292.817 292.468 296.212 288.662 299.872 289.222 304.125 294.92 307.194 302.086 305.932 308.383 305.924 311.969 305.755 316.53 305.695 317.85 301.545 319.453 297.893 324.126 292.922 319.957 289.318 316.643 286.459 311.505 287.955 307.535 287.547zM333.451 288.335C329.721 288.025 325.953 289.31 324.523 293.078 322.626 296.422 320.086 299.909 320.125 303.852 326.399 302.609 331.985 297.589 336.9 293.301 338.528 292.308 340.873 288.869 337.527 288.554 336.183 288.318 334.812 288.31 333.451 288.335z" color="#000" overflow="visible" style="isolation:auto;mix-blend-mode:normal;solid-color:#000;solid-opacity:1"/><path fill="#ff8080" d="M294.929 287.513C293.555 287.657 292.03 287.662 290.832 288.42 290.084 289.308 291.048 290.485 291.756 291.065 293.549 292.17 296.463 291.015 296.726 288.85 296.678 288.012 295.704 287.445 294.928 287.513z" color="#000" overflow="visible" style="isolation:auto;mix-blend-mode:normal;solid-color:#000;solid-opacity:1"/><path d="M15.032 520.313 14.639 359.37C14.029 109.89 13.959 6.78 14.397 6.342 14.962 5.777 205.52 4.956 343.145 4.926 456.981 4.9 527.614 5.48 529.19 6.455 529.632 6.728 529.768 20.784 529.491 37.69 527.135 80.816 528.698 125.929 528.806 161.427 528.91 200.477 529.282 273.377 529.629 323.427S530.391 434.902 530.551 459.927C530.711 484.952 531.103 508.951 531.423 513.257 531.948 520.334 531.843 521.017 530.324 520.355 363.814 523.44 195.4 522.188 15.032 520.313zM252.12 513.833C254.58 513.95 256.777 514.227 257 514.45 257.225 514.674 258.344 514.356 259.487 513.744 260.882 512.998 268.663 512.73 283.106 512.926 317.233 513.392 344.346 513.457 348.146 513.082 350.07 512.892 358.961 512.939 367.903 513.186 387.77 513.735 388.724 513.379 385.37 506.666 384.147 504.214 383.145 501.837 383.145 501.384 383.145 500.504 379.6 492.432 378.114 489.927 377.624 489.102 375.107 484.602 372.52 479.927 369.932 475.252 365.313 467.827 362.254 463.427 350.816 446.973 337.248 426.111 335.848 422.827 335.052 420.956 332.994 416.501 331.275 412.926 327.61 405.303 323.07 391.86 323.773 390.72 324.815 389.035 326.013 390.064 326.636 393.177 327.596 397.982 330.275 406.301 331.18 407.288 332.217 408.422 341.958 403.092 342.615 401.03 342.902 400.13 344.369 399.34 345.961 399.23 366.575 391.57 389.576 379.151 408.145 368.936 418.74 363.096 425.685 358.51 440.905 347.298 443.97 345.038 446.86 340.125 447.479 336.12 447.875 333.554 447.037 330.983 443.73 324.621 437.498 312.628 434.108 306.684 432.215 304.427 424.136 294.77 418.924 283.001 410.74 273.427 409.314 271.777 408.14 269.977 408.13 269.427 408.122 268.877 407.73 267.818 407.257 267.074 406.557 265.968 405.97 265.951 404.043 266.982 402.747 267.676 401.046 268.884 400.263 269.667 397.978 271.952 388.388 278.867 385.914 280.014 384.666 280.593 382.07 281.937 380.145 283.002 378.22 284.067 374.058 285.475 370.895 286.132 367.733 286.79 365.145 287.729 365.145 288.217 365.145 289 367.888 292.228 374.645 299.398 380.627 308.366 394.188 317.483 396.525 327.158 397.096 329.564 396.61 330.3 392.408 333.382 389.79 335.305 387.006 336.889 386.224 336.903 370.628 346.199 352.41 353.207 337.645 358.879 332.605 360.85 311.291 365.927 308.06 365.927 305.35 365.927 297.685 370.015 295.892 372.418 295.478 372.973 294.64 375.228 294.032 377.428 293.423 379.627 292.549 382.327 292.089 383.427 290.745 386.642 288.332 396.015 287.455 401.427 286.805 405.441 286.228 406.486 284.527 406.73 282.146 407.07 282.106 406.11 284.14 397.427 284.784 394.677 285.467 391.752 285.657 390.927 286.84 385.786 291.303 373.396 292.457 372.042 293.215 371.154 296.237 366.377 299.173 361.427 306.497 349.08 313.58 340.623 332.036 322.193 345.66 308.59 360.146 291.47 360.146 288.974 360.145 288.228 347.816 288.588 343.645 289.456 342.545 289.684 340.897 291.2 339.983 292.825 338.208 295.985 330.877 301.769 325.145 304.533L320.018 307.006C319.124 307.438 316.842 308.081 314.948 308.436 298.574 319.882 284.843 329.937 271.144 335.2 252.421 342.377 242.382 341.483 236.736 332.136 234.276 328.06 233.976 326.736 234.416 321.879 235.746 307.2 248.208 294.544 266.146 289.654 280.736 285.676 287.296 285.129 328.88 284.43 363.861 283.843 370.121 283.016 381.96 277.42 402.41 267.758 416.3 251.47 422.893 229.428 425.51 220.68 426.84 207.475 425.207 206.466 424.575 206.075 423.515 206.179 422.851 206.696 418.041 210.454 409.321 208.164 403.735 201.679 400.661 198.108 398.947 196.928 396.833 196.928 391.436 196.927 375.83 202.179 363.783 208.05 350.412 214.57 351.234 214.112 344.698 218.677 342.14 220.465 339.617 221.927 339.095 221.927 338.573 221.927 338.145 222.28 338.145 222.708 338.145 223.138 335.246 225.725 331.703 228.458 328.159 231.191 325.234 233.797 325.203 234.248 325.126 235.34 322.505 237.927 321.467 237.935 321.015 237.938 319.583 239.501 318.285 241.407 314.763 246.579 311.295 250.411 310.687 249.803 310.107 249.223 316.09 239.647 317.38 239.092 317.807 238.908 317.926 238.382 317.643 237.923 317.359 237.465 315.753 237.775 314.074 238.613 306.171 242.555 313.046 237.14 324.111 230.709L327.576 228.695 325.361 226.9C324.142 225.914 323.145 224.81 323.145 224.45 323.145 224.088 322.02 222.318 320.645 220.515 319.27 218.714 318.145 216.57 318.145 215.75 318.145 214.93 317.847 213.962 317.482 213.597 316.116 212.231 313.394 203.08 312.652 197.357 311.065 185.134 311.834 177.955 315.597 169.83 318.552 163.456 319.928 161.927 322.708 161.927 326.647 161.927 326.43 160.122 321.95 155.58 313.213 146.724 310.047 147.926 304.234 162.307 303.594 163.89 302.845 164.96 302.57 164.686 302.295 164.41 302.494 163.116 303.012 161.806 303.53 160.499 304.699 157.317 305.61 154.736 306.951 150.935 307.894 149.835 310.562 148.955 314.676 147.597 318.639 148.902 322.145 152.77 323.52 154.286 326.22 156.142 328.145 156.894 332.745 158.69 345.054 164.288 352.921 168.162L359.196 171.252 362.367 168.34C364.111 166.738 366.033 164.977 366.64 164.427 368.13 163.074 374.145 154.235 374.145 153.398 374.145 153.031 374.767 151.312 375.528 149.578 378.873 141.956 379.478 139.27 379.391 132.452 379.284 124.151 378.052 118.864 375.109 114.073 373.68 111.75 372.526 110.888 371.347 111.268 370.41 111.57 367.17 112.679 364.145 113.734 356.572 116.375 347.048 117.097 319.235 117.134 295.39 117.169 295.362 117.17 292.754 119.589 288.435 123.595 289.32 124.413 298.132 124.562 302.516 124.636 306.862 124.99 307.791 125.345 310.084 126.225 308.35 127.82 304.599 128.282 300.901 128.738 294.738 131.316 291.77 133.651 289.57 135.379 289.854 135.428 302.077 135.439 316.213 135.452 322.763 136.145 324.42 137.801 325.039 138.42 326.285 138.927 327.19 138.927 329.45 138.927 332.627 142.512 331.167 143.414 330.557 143.791 329.515 143.69 328.85 143.19 328.188 142.69 326.745 142.205 325.645 142.11 324.545 142.018 322.97 141.868 322.145 141.777 321.32 141.686 318.845 141.716 316.645 141.844L312.645 142.076 316.645 143.927C318.845 144.946 321.32 145.825 322.145 145.88 322.97 145.936 325.22 147.318 327.145 148.952L330.645 151.922 325.895 150.21C323.283 149.267 321.145 148.143 321.145 147.712 321.145 147.28 320.448 146.927 319.595 146.927 318.744 146.927 316.606 146.161 314.846 145.224 313.086 144.287 311.084 143.632 310.396 143.768 309.708 143.904 309.145 143.618 309.145 143.132 309.145 141.878 313.775 139.927 316.751 139.927 318.133 139.927 319.017 139.528 318.715 139.041 317.788 137.54 311.445 136.799 300.813 136.95 287.424 137.142 287.013 137.128 286.355 136.471 285.6 135.715 288.843 133.194 293.145 131.193 298.475 128.715 294.402 128.46 288.676 130.914 285.046 132.47 284.168 132.604 285.117 131.461 286.617 129.654 293.713 127.58 296.186 128.228 297.378 128.54 297.851 128.168 297.676 127.056 297.533 126.16 296.793 125.504 296.031 125.598 295.269 125.69 291.636 126.062 287.957 126.42 284.1 126.797 280.767 127.677 280.085 128.5 279.433 129.284 278.045 129.926 276.998 129.926 275.076 129.927 272.643 134.305 273.654 135.942 273.942 136.408 273.717 137.074 273.154 137.422 272.03 138.117 268.903 135.503 269.793 134.613 270.097 134.309 270.068 133.611 269.728 133.062 268.601 131.237 260.145 137.295 260.145 139.927 260.145 140.477 259.512 140.927 258.74 140.927 257.825 140.927 257.516 140.227 257.855 138.927 258.632 135.957 257.365 136.471 252.895 140.941 249.139 144.7 244.762 146.876 243.5 145.614 243.195 145.31 243.4 143.57 243.956 141.744 245.857 135.5 246.203 132.927 245.143 132.927 244.57 132.927 243.564 134.165 242.907 135.677 242.249 137.19 240.187 140.331 238.323 142.658 235.226 146.526 235.031 147.16 236.041 150.058 236.648 151.8 237.145 155.407 237.145 158.076 237.145 160.745 237.483 162.915 237.895 162.9 238.308 162.884 239.958 161.534 241.562 159.9 244.98 156.416 248.575 156.102 252.037 158.986 254.253 160.831 254.384 161.463 253.817 167.536 253.243 173.69 251.957 176.912 246.095 186.896 245.297 188.253 242.47 192.303 239.813 195.896 236.237 200.73 235.376 202.508 236.5 202.738 238.036 203.053 252.676 195.496 253.682 193.868 254.458 192.612 263.049 188.928 265.2 188.928 266.19 188.927 267.73 189.655 268.62 190.545 270.473 192.398 271.572 191.726 271.81 188.594 272.537 179.024 273.58 171.777 274.293 171.336 275.324 170.7 275.328 170.351 274.18 181.261 273.67 186.12 272.834 190.62 272.324 191.261 271.814 191.903 271.084 194.677 270.702 197.427 270.319 200.177 269.072 205.03 267.93 208.208 265.255 215.66 265.922 228.447 269.32 234.811 276.139 247.589 286.778 248.238 294.453 236.343 297.215 232.063 299.203 221.707 298.553 214.995 297.473 203.84 296.847 201.765 294.246 200.685 292.816 200.093 291.038 199.71 290.296 199.835 288.23 200.18 281.823 195.346 279.791 191.906 278.796 190.22 277.574 187.422 277.077 185.69 276.104 182.295 276.932 171.927 278.177 171.927 279.277 171.927 284.22 176.85 287.387 181.096 290.485 185.25 296.145 195.819 296.145 197.45 296.145 198.042 296.681 199.063 297.335 199.717 297.99 200.372 298.622 201.474 298.741 202.167 298.861 202.86 299.44 205.452 300.027 207.927 301.358 213.53 301.427 222.642 300.193 230.17 297.97 243.75 286.845 250.961 276.431 245.575 267.652 241.035 264.054 233.326 264.457 219.923 264.59 215.525 264.58 211.927 264.433 211.927S261.575 213.88 258.406 216.266C255.238 218.652 250.283 221.657 247.396 222.944 241.236 225.689 241.252 225.608 243.685 241.879 245.286 252.581 245.126 267.884 243.356 273.496 240.235 283.398 226.076 298.884 208.615 311.496L205.751 313.565 207.805 316.496C208.935 318.108 212.227 323.927 215.12 329.427 225.015 340.915 234.553 366.982 244.9 378.447 247.263 381.001 259.32 400.177 260.605 403.427 263.99 411.98 265.2 417.157 264.122 418.455 262.46 420.46 259.354 418.632 258.507 415.149 258.143 413.652 255.46 407.386 252.546 401.225 245.668 386.687 243.54 385.123 225.646 381.442 217.516 379.77 199.771 377.682 192.895 377.588 190.282 377.552 188.145 377.215 188.145 376.838 188.145 376.463 186.007 375.856 183.395 375.489 178.045 374.739 166.331 372.529 155.145 370.16 151.02 369.285 147.195 368.523 146.645 368.465 146.095 368.406 142.157 367.255 137.895 365.905 132.242 364.115 130.145 362.992 130.145 361.757 130.145 360.825 131.148 359.744 132.375 359.354 133.603 358.964 135.74 357.88 137.126 356.94 168.139 335.084 205.443 311.178 230.306 286.942 240.076 277.36 241.608 273.093 241.63 255.427 241.642 245.803 240.713 230.637 239.8 225.565 239.646 224.705 244.648 221.447 250.971 218.289 255.37 216.092 268.103 203.575 268.301 201.253 268.793 195.513 268.555 193.703 267.142 192.425 265.771 191.184 264.63 191.468 258.11 194.678 254.004 196.698 250.42 198.594 250.145 198.892 247.581 201.667 240.943 204.832 237.155 205.086 231.38 205.473 230.968 203.834 235.337 197.876 244.404 185.51 248.219 179.112 250.469 172.499 253.677 163.07 251.957 157.546 246.42 159.505 244.196 160.293 232.29 174.163 232.182 176.092 232.092 177.717 217.824 192.362 214.474 194.27 210.656 196.442 212.8 193.428 220.853 185.301 229.653 176.421 235.932 168.381 234.885 167.334 234.381 166.83 226.347 171.532 225.145 173.034 224.87 173.377 222.845 174.634 220.645 175.827 218.445 177.019 214.62 179.315 212.145 180.927 209.67 182.54 205.873 184.827 203.708 186.01 201.542 187.192 199.145 188.785 198.38 189.55 197.615 190.316 196.084 191.426 194.978 192.018 191.599 193.825 193.146 189.774 196.656 187.62 203.032 183.709 222.95 171.708 228.896 168.194L235.145 164.501V158.774C235.145 152.848 231.083 139.341 228.727 137.427 228.05 136.877 227.014 135.032 226.425 133.327 225.835 131.622 224.295 129.124 222.999 127.777 221.705 126.43 219.745 124.182 218.645 122.781 217.545 121.381 215.38 119.42 213.833 118.425 211.2 116.731 208.617 116.657 173.313 117.251 152.573 117.6 134.118 118.183 132.302 118.546 129.135 119.18 124.327 124.05 124.895 126.048 125.033 126.532 124.713 126.928 124.185 126.928S122.662 128.84 121.973 131.177C121.283 133.514 120.173 136.501 119.504 137.815 118.732 139.333 118.434 143.165 118.685 148.316 119.132 157.458 119.342 158.851 120.566 160.813 121.042 161.576 121.485 162.926 121.55 163.813 121.869 168.15 130.065 180.818 137.14 187.906 149.757 200.551 164.956 207.826 179.572 208.216L187.5 208.427 188.573 203.12C189.163 200.199 190.095 197.949 190.645 198.119 191.195 198.289 191.504 199.102 191.331 199.927L190.075 205.927C187.667 217.43 188.205 231.072 191.741 248.243 192.513 251.99 193.145 256.186 193.145 257.564 193.145 259.985 191.155 262.901 189.467 262.953 166.357 283.575 138.329 300.006 111.645 318.587 108.895 320.51 104.24 324.297 101.298 327.004 98.358 329.712 95.315 331.927 94.538 331.927 91.74 331.927 83.862 336.318 80.56 339.717 72.842 347.666 70.97 362.407 76.251 373.643 80.551 382.79 89.731 390.786 98.424 392.955 100.196 393.397 104.795 394.946 108.645 396.398 115.323 398.915 139.171 405.052 147.645 406.432 157.303 408.006 175.368 411.976 177.108 412.908 178.156 413.468 180.372 413.928 182.032 413.928 183.692 413.927 186.085 414.34 187.348 414.844 188.612 415.349 193.02 416.5 197.145 417.403 206.514 419.453 208.691 420.223 218.76 425.043 223.222 427.179 227.128 428.927 227.44 428.927 228.625 428.927 240.724 437.42 242.324 439.376 243.248 440.504 243.66 441.78 243.241 442.21 242.322 443.155 239.145 442.077 239.145 440.82 239.145 440.33 238.583 439.913 237.895 439.896 237.208 439.878 235.095 438.306 233.198 436.4 229.797 432.983 226.506 431.233 225.455 432.284 225.16 432.58 225.798 434.759 226.876 437.125 228.766 441.273 231.492 449.965 234.183 460.427 235.44 465.316 236.139 483.445 235.146 485.427 234.871 485.977 234.571 488.677 234.48 491.427 234.287 497.291 233.643 501.94 232.283 507.3 231.743 509.428 231.53 511.764 231.808 512.49 232.468 514.209 236.413 514.815 242.645 514.155 245.395 513.863 249.66 513.719 252.12 513.834zM401.176 357.428C401.176 356.877 401.612 355.752 402.146 354.927 402.677 354.102 403.114 353.877 403.114 354.427S402.678 356.102 402.145 356.927C401.612 357.752 401.175 357.977 401.175 357.427zM246.066 350.81C240.12 349.943 233.9 346.73 231.718 343.4 229.195 339.548 230.728 339.03 233.916 342.655 237.37 346.584 242.084 348.04 251.329 348.034 261.509 348.028 276.694 344.084 278.636 340.943 279.414 339.683 281.146 339.607 281.146 340.832 281.145 342.178 271.112 347.587 266.054 348.969 259.358 350.797 251.162 351.552 246.065 350.809zM241.17 292.177C241.201 291.24 253.206 282.135 258.047 279.377 260.026 278.25 263.67 276.78 266.145 276.11 272.122 274.491 286.145 273.095 286.145 274.118 286.145 274.563 285.583 274.936 284.895 274.948 274.275 275.115 257.625 281.37 247.438 289.017 242.135 293 241.126 293.508 241.17 292.178zM337.145 282.045C337.145 281.495 337.595 280.767 338.145 280.427 338.695 280.087 339.145 280.26 339.145 280.81S338.695 282.087 338.145 282.427C337.595 282.767 337.145 282.595 337.145 282.045zM340.688 275.927C341.1 274.552 342.394 271.852 343.564 269.927 344.734 268.002 346.354 265.077 347.166 263.427 347.978 261.777 348.89 260.202 349.194 259.927 349.497 259.652 351.247 256.952 353.082 253.927 356.436 248.4 362.955 241.403 363.885 242.333 364.159 242.608 363.655 243.561 362.765 244.451 361.873 245.341 361.144 246.713 361.144 247.5S360.734 248.927 360.23 248.927C358.702 248.927 343.23 271.385 343.113 273.772 343.096 274.132 342.374 275.327 341.51 276.427 339.985 278.37 339.96 278.354 340.688 275.927zM368.406 261.441C371.534 255.176 373.146 253.43 373.146 256.305 373.145 257.063 372.431 258.275 371.56 258.998 370.688 259.722 369.289 262.028 368.45 264.121 367.613 266.214 366.531 267.927 366.048 267.927 365.564 267.927 366.625 265.008 368.406 261.441zM275.646 257.792 272.645 255.841 278.145 255.969C288.292 256.206 288.314 256.2 293.894 250.298 296.823 247.2 299.449 244.898 299.73 245.178 300.01 245.46 299.544 246.386 298.693 247.237 297.842 248.088 297.145 249.225 297.145 249.763 297.145 250.302 294.958 252.708 292.285 255.111 288.21 258.777 286.72 259.501 283.036 259.611 280.19 259.698 277.59 259.058 275.646 257.793zM316.145 253.727C319.17 250.71 323.445 247.045 325.645 245.585 327.845 244.125 331.292 241.825 333.307 240.47 338.66 236.874 351.878 229.696 357.645 227.256 360.395 226.092 364.445 224.376 366.645 223.441 374.841 219.96 368.057 224.214 358.675 228.44 353.314 230.854 345.86 234.65 342.111 236.879 338.363 239.104 335.018 240.926 334.678 240.926 334.338 240.927 333.518 241.385 332.853 241.944 332.189 242.504 328.72 245.188 325.145 247.908S316.845 254.286 314.645 256.035C311.588 258.466 311.942 257.922 316.145 253.727zM384.145 246.927C383.006 246.192 383.428 245.954 385.895 245.943 387.682 245.935 389.145 246.377 389.145 246.927 389.145 248.197 386.11 248.197 384.145 246.927zM372.751 238.346C371.658 235.494 372.116 234.506 373.613 236.486 374.421 237.554 375.096 238.765 375.113 239.177 375.173 240.575 373.363 239.937 372.753 238.346zM391.145 231.427C391.145 230.494 392.09 229.927 393.645 229.927 395.201 229.927 396.145 230.494 396.145 231.427 396.145 232.361 395.201 232.927 393.645 232.927 392.09 232.927 391.145 232.361 391.145 231.427zM375.185 227.475C373.896 225.922 374.65 221.927 376.232 221.927 376.755 221.927 376.9 223.052 376.556 224.427 376.08 226.317 376.32 226.927 377.536 226.927 378.422 226.927 379.147 227.377 379.147 227.927 379.145 229.427 376.558 229.131 375.184 227.475zM262.954 175.658C263.534 174.959 264.991 171.394 266.192 167.734 268.996 159.194 272.22 156.006 277.388 156.666 281.934 157.247 287.433 161.98 289.607 167.181 291.775 172.371 291.57 172.496 287.92 168.212 283.464 162.982 277.867 157.93 276.53 157.928 273.122 157.926 269.838 162.668 265.278 174.178 264.678 175.69 263.673 176.927 263.044 176.927 262.233 176.927 262.207 176.557 262.954 175.657zM210.655 171.944C210.31 171.384 206.341 170.912 201.836 170.894L193.646 170.861 196.005 168.894C197.304 167.812 199.442 166.927 200.756 166.927 203.229 166.927 203.948 165.541 202.074 164.384 201.485 164.019 198.448 163.49 195.324 163.206 192.201 162.922 187.85 162.394 185.654 162.033 178.28 160.818 180.724 156.258 189.433 154.983 191.516 154.676 193.316 153.997 193.433 153.472 193.672 152.397 187.872 151.002 181.723 150.656 177.91 150.442 177.645 150.233 177.645 147.427V144.427L185.395 144.477C189.658 144.504 193.145 144.253 193.145 143.918 193.145 142.868 181.075 134.928 179.48 134.928 178.644 134.927 176.882 134.078 175.565 133.042 174.247 132.006 171.199 130.863 168.792 130.502 166.385 130.14 163.567 129.183 162.53 128.374 160.795 127.019 160.964 126.93 164.645 127.263 169.107 127.666 171.44 128.52 181.802 133.553 195.666 140.283 210.597 156.987 212.65 168.062 213.304 171.585 212 174.12 210.655 171.943zM214.645 158.927C214.985 158.377 215.462 157.927 215.705 157.927 215.946 157.927 216.144 158.377 216.144 158.927S215.67 159.927 215.086 159.927C214.504 159.927 214.306 159.477 214.646 158.927zM333.645 128.927C333.305 128.377 333.98 127.927 335.145 127.927S336.985 128.377 336.645 128.927C336.305 129.477 335.63 129.927 335.145 129.927 334.66 129.927 333.985 129.477 333.645 128.927zM398.645 507.927C398.985 507.377 398.562 506.927 397.705 506.927 396.846 506.927 396.144 507.377 396.144 507.927S396.57 508.927 397.086 508.927C397.604 508.927 398.306 508.477 398.646 507.927zM491.686 414.994C491.324 414.407 490.55 413.927 489.964 413.927 489.3 413.927 489.377 414.501 490.165 415.452 491.537 417.104 492.763 416.735 491.686 414.994zM262.501 333.354C269.392 331.587 277.174 327.47 277.09 325.634 276.98 323.258 270.883 319.625 264.818 318.322 258.438 316.953 245.904 316.684 240.645 317.802 236.92 318.595 236.313 321.46 238.602 327.452 241.384 334.739 249.385 336.714 262.5 333.354zM312.438 305.278C315.908 304.705 316.473 304.135 319.075 298.582 321.691 293 321.798 292.328 320.417 290.22 319.022 288.09 318.225 287.927 309.205 287.927 298.75 287.927 299.042 287.803 293.68 294.538 291.333 297.485 289.145 302.018 289.145 303.932 289.145 305.47 305.551 306.417 312.438 305.28zM288.647 298.924C290.356 295.552 290.977 293.103 290.55 291.408 289.936 288.958 289.753 288.91 283.283 289.5 279.633 289.831 275.295 290.49 273.645 290.96A362.04 362.04 0 0 1 266.395 292.91C264.058 293.513 262.145 294.386 262.145 294.852 262.145 297.184 277.806 303.863 283.378 303.906 285.662 303.924 286.528 303.105 288.647 298.924zM326.527 300.897C329.213 299.567 331.908 297.678 332.517 296.702 333.128 295.726 333.969 294.927 334.387 294.927 335.434 294.927 339.146 291.126 339.146 290.052 339.145 288.714 334.056 287.993 330.191 288.784 327.265 289.383 326.245 290.401 323.506 295.459 320.369 301.253 319.361 304.426 320.896 303.68 321.307 303.481 323.841 302.228 326.526 300.897zM295.897 289.171C296.26 288.082 294.928 287.989 291.338 288.853 291.166 288.894 291.32 289.403 291.678 289.983 292.521 291.345 295.356 290.799 295.898 289.17zM338.652 217.937C339.723 215.343 339.156 201.627 337.763 196.427 336.55 191.898 336.105 191.37 333.035 190.815 325.224 189.404 319.958 185.163 319.924 180.255 319.89 175.309 319.15 172.928 317.645 172.928 316.13 172.927 315.73 174.032 314.217 182.408 312.19 193.627 318.668 216.028 326.43 224.64L328.424 226.853 333.23 223.14C335.873 221.098 338.313 218.757 338.651 217.937zM344.541 215.097C345.292 213.88 359.766 205.586 366.144 202.717 372.754 199.746 376.712 198.294 380.395 197.49 383.971 196.709 384.014 193.789 380.524 188.752 377.939 185.022 369.145 177.112 369.145 178.515 369.145 178.912 368.358 178.561 367.395 177.735 365.522 176.127 353.378 170.201 341.145 164.925 337.02 163.146 332.633 161.218 331.397 160.641 327.837 158.979 327.348 160.865 330.645 163.54 334.136 166.376 352.258 177.447 359.904 181.417 365.506 184.324 367.224 185.927 364.738 185.927 363.186 185.927 356.055 182.9 355.145 181.853 354.87 181.537 352.62 180.187 350.145 178.853S345.42 176.187 345.145 175.893C344.87 175.599 342.045 173.653 338.867 171.57 335.689 169.487 332.314 166.95 331.367 165.936 327.66 161.961 321.51 162.508 319.092 167.027 316.88 171.16 324.382 178.658 341.756 189.676 346.216 192.505 351.054 195.117 352.506 195.482 355.27 196.176 356.158 197.927 353.745 197.927 352.012 197.927 342.79 193.708 340.662 191.941 338.436 190.094 338.11 190.92 339.278 195.455 341.058 202.374 342.23 211.346 341.658 213.677 341.278 215.235 341.557 215.927 342.569 215.927 343.37 215.927 344.257 215.554 344.54 215.097zM425.36 200.715C429.636 197.21 435.633 187.89 434.943 185.82 434.749 185.238 433.039 187.161 431.143 190.094 423.425 202.032 414.941 205.581 408.8 199.44 405.105 195.744 407.62 183.912 414.102 174.49 417.299 169.844 425.642 163.498 427.248 164.49 428.363 165.18 427.196 167.928 425.788 167.928 424.643 167.927 419.711 173.498 417.431 177.367 415.378 180.85 415.964 182.734 418.228 179.927 421.734 175.58 431.323 165.927 432.135 165.927 433.507 165.927 435.821 170.304 436.565 174.307 437.715 180.513 439.54 177.248 438.696 170.493 437.48 160.765 431.054 156.264 423.829 160.082 421.152 161.497 413.307 169.69 412.008 172.427 410.91 174.741 409.365 177.324 406.811 181.112 405.655 182.826 404.796 186.508 404.433 191.299 403.873 198.713 403.903 198.84 407.05 201.985 410.002 204.938 410.622 205.135 415.624 204.721 419.95 204.36 421.876 203.57 425.36 200.715zM286.74 188.369C288.645 184.354 287.665 182.31 284.338 183.366 281.648 184.22 281.013 186.24 282.455 189.346 284.037 192.756 284.733 192.598 286.74 188.37zM328.888 184.199C329.282 183.02 325.374 181.366 324.428 182.313 323.597 183.142 326.263 186.054 327.482 185.648 328.053 185.458 328.686 184.806 328.888 184.2zM276.826 122.928 280.672 115.427 315.66 115.233C337.033 115.113 352.979 114.59 356.645 113.888 365.101 112.268 372.074 108.639 376.094 103.768 378.934 100.326 379.615 98.58 379.956 93.867L380.37 88.144 424.008 87.624C496.605 86.758 508.492 84.097 520.016 66.13 526.211 56.474 527.386 41.843 522.996 29.023 521.197 23.76 517.034 17.213 514.5 15.655 513.81 15.231 512.575 14.215 511.757 13.397 510.94 12.579 508.105 10.909 505.458 9.686L500.645 7.462 275.294 7.65C122.368 7.78 48.93 8.174 46.794 8.88 41.65 10.58 35.145 20.447 35.145 26.55 35.145 28.613 34.67 28.927 31.546 28.927 26.334 28.927 21.328 31.677 18.56 36.062 16.182 39.83 16.145 40.247 16.145 63.685 16.145 83.001 16.422 87.878 17.615 89.58 21.677 95.38 35.917 98.077 51.517 96.001 60.67 94.783 62.175 94.978 60.377 97.153 58.6 99.301 60.223 103.905 63.75 106.72 73.83 114.762 86.026 115.644 181.645 115.246 266.746 114.892 263.763 114.84 265.398 116.727 266.208 117.662 267.943 121.241 269.254 124.68 270.564 128.117 271.939 130.817 272.308 130.679 272.678 130.54 274.711 127.052 276.826 122.927zM153.812 97.5C153.51 96.716 153.966 95.491 154.823 94.78 155.681 94.068 158.553 90.268 161.207 86.335 163.861 82.402 166.77 78.902 167.671 78.556 168.57 78.21 172.367 77.927 176.105 77.927 183.85 77.927 185.484 79.016 184.312 83.395 183.69 85.725 182.515 86.613 177.848 88.279 172.248 90.28 170.678 92.15 173.645 93.29 175.95 94.173 175.545 97.927 173.145 97.927 172.045 97.927 171.145 97.5 171.145 96.978S169.538 94.804 167.575 93.306L164.005 90.582 160.19 94.755C156.141 99.185 154.696 99.806 153.812 97.5zM177.465 84.996C181.752 83.366 180.584 81.927 174.974 81.927 169.974 81.927 166.145 83.788 166.145 86.218 166.145 87.34 173.344 86.563 177.465 84.996zM130.145 96.236C130.145 94.195 141.396 77.926 142.806 77.926 145.594 77.927 145.112 80.387 141.244 85.901 138.99 89.116 137.145 92.011 137.145 92.336 137.145 92.661 139.845 92.927 143.145 92.927 147.867 92.927 149.145 93.254 149.145 94.46 149.145 96.465 148.182 96.709 138.395 97.19 131.904 97.51 130.145 97.306 130.145 96.235zM184.578 96.612C184.301 95.89 186.002 92.363 188.36 88.775 190.717 85.187 193.222 81.262 193.926 80.053 195.126 77.993 195.818 77.873 204.926 78.142 212.772 78.372 214.646 78.717 214.646 79.927 214.645 81.112 212.756 81.532 205.655 81.927 198.124 82.347 196.61 82.711 196.331 84.177 196.042 85.7 196.852 85.927 202.572 85.927 208.479 85.927 209.145 86.13 209.145 87.927 209.145 89.656 208.433 89.946 203.895 90.064 194.707 90.304 193.672 90.41 192.38 91.246 190.385 92.536 191.783 93.634 194.85 93.186 196.388 92.964 198.931 93.272 200.504 93.87 202.88 94.777 203.155 95.21 202.13 96.444 200.48 98.434 185.333 98.581 184.578 96.614zM209.662 96.954C209.33 96.419 209.867 95.331 210.852 94.536 231.554 77.853 234.556 75.992 235.63 79.177 235.86 79.865 236.277 83.877 236.553 88.092 236.941 94.017 236.727 96.03 235.612 96.955 234.129 98.185 234.152 98.212 232.721 93.542 232.404 92.509 230.65 92.226 225.833 92.429 220.806 92.641 218.517 93.282 215.526 95.315 211.298 98.188 210.553 98.396 209.662 96.954zM232.145 86.427C232.145 83.622 231.445 83.384 228.895 85.32 226.385 87.225 226.74 88.927 229.645 88.927 231.645 88.927 232.145 88.427 232.145 86.427zM242.145 96.05C242.145 95.017 242.805 93.624 243.612 92.955 244.42 92.285 246.682 88.873 248.64 85.372 251.645 79.997 252.78 78.846 255.922 77.972 263.916 75.753 269.145 77.862 269.145 83.304 269.145 86.993 264.045 93.328 260.145 94.481 258.77 94.888 257.645 95.142 257.645 95.047 257.645 94.95 255.395 95.555 252.645 96.389 245.621 98.52 242.145 98.407 242.145 96.05zM257.445 91.31C261.946 89.036 265.145 85.897 265.145 83.753 265.145 82.241 264.327 81.927 260.388 81.927 255.798 81.927 255.526 82.094 252.648 86.677 251.006 89.29 249.51 91.765 249.32 92.177 248.698 93.542 254.188 92.956 257.445 91.31zM277.145 95.995C277.145 94.932 278.045 93.777 279.145 93.427 281.16 92.787 281.902 89.513 280.261 88.5 278.798 87.595 275.044 78.9 275.676 77.878 276.957 75.805 278.756 77.198 281.044 82.034 282.364 84.822 284.087 87.352 284.875 87.654 285.745 87.988 288.55 85.986 292.005 82.566 297.336 77.29 300.324 75.788 301.546 77.764 302.107 78.676 288.068 91.936 282.622 95.637 278.506 98.434 277.145 98.523 277.145 95.995zM302.736 97.075C301.23 94.638 305.415 90.797 307.406 92.788 308.956 94.338 307.76 97.408 305.48 97.735 304.3 97.904 303.065 97.607 302.736 97.075zM98.73 96.178C97.204 94.653 98.58 92.87 103.395 90.14 106.283 88.504 111.335 85.068 114.621 82.506 118.174 79.736 121.418 77.966 122.621 78.137 124.505 78.407 124.621 79.018 124.29 86.927 124.093 91.602 123.729 95.765 123.479 96.177 122.587 97.658 120.602 96.885 119.629 94.677 118.738 92.657 117.995 92.445 112.348 92.604 108.122 92.724 104.95 93.434 102.684 94.771 100.83 95.866 99.05 96.5 98.73 96.178zM120.145 86.594C120.145 84.44 119.061 83.963 117.037 85.227 114.428 86.857 114.67 87.927 117.645 87.927 119.062 87.927 120.145 87.35 120.145 86.594zM310.145 88.817C310.145 87.357 325.017 71.522 326.781 71.104 330.071 70.324 327.521 74.998 320.741 82.177 314.063 89.245 310.144 91.702 310.144 88.817zM59.628 68.9C59.278 68.334 60.378 66.579 62.07 64.998 63.761 63.418 65.145 61.79 65.145 61.38 65.145 60.97 63.542 58.677 61.583 56.286 59.623 53.895 58.3 51.486 58.642 50.933 59.89 48.913 62.7 50.037 64.904 53.44 66.147 55.358 67.73 56.927 68.422 56.927 69.113 56.927 72.029 54.872 74.9 52.361 79.714 48.15 82.145 47.404 82.145 50.14 82.145 51.575 63 69.855 61.455 69.896 60.798 69.913 59.976 69.465 59.627 68.9zM28.145 67.646C28.145 66.79 30.375 62.852 33.1 58.896 35.823 54.943 38.212 51.227 38.407 50.642 38.882 49.217 50.047 48 52.921 49.059 56.616 50.42 56.865 52.942 53.564 55.576 51.275 57.402 50.645 58.71 50.645 61.64 50.645 66.521 47.958 67.861 36.627 68.63 29.366 69.122 28.145 68.981 28.145 67.646zM45.995 63.381C46.973 62.487 44.784 61.13 41.503 60.598 37.955 60.022 35.28 61.576 35.177 64.271 35.149 65.017 45.103 64.197 45.995 63.381zM47.395 55.23C49.341 54.137 47.805 52.833 44.903 53.113 42.738 53.324 41.55 54.022 41.323 55.217 41.038 56.714 41.445 56.895 43.813 56.328 45.371 55.956 46.983 55.462 47.395 55.23zM108.465 67.32C108.078 66.307 108.278 65.383 108.935 65.165 110.705 64.575 117.476 54.925 116.676 54.13 116.286 53.744 114.545 53.427 112.806 53.427 110.312 53.427 109.646 53.006 109.646 51.427 109.645 49.557 110.405 49.41 121.395 49.146 132.631 48.876 133.145 48.953 133.145 50.896 133.145 52.625 132.5 52.927 128.818 52.927 124.651 52.927 124.26 53.207 118.07 60.608 111.111 68.928 109.511 70.045 108.466 67.321zM125.636 67.91C125.288 67.35 126.881 64.762 129.175 62.16 131.47 59.557 134.47 55.515 135.841 53.177 137.391 50.537 139.057 48.927 140.241 48.927 142.675 48.927 142.638 49.977 140.045 54.37L137.948 57.927H143.298C148.518 57.927 148.735 57.811 152.148 53.201 155.812 48.248 157.412 47.364 157.922 50.011 158.406 52.518 147.209 68.926 145.013 68.926 142.85 68.927 142.647 67.7 144.358 64.96 146.083 62.196 145.09 61.733 139.13 62.524 135.448 63.012 132.912 64.072 130.631 66.074 127.048 69.22 126.556 69.4 125.634 67.91zM155.632 67.906C155.286 67.346 156.047 65.606 157.323 64.04 158.6 62.475 161.335 58.434 163.4 55.06L167.152 48.928H176.722C185.296 48.927 186.257 49.11 185.959 50.677 185.685 52.116 184.217 52.517 177.714 52.927 172.653 53.247 169.654 53.877 169.391 54.677 169.102 55.552 170.318 55.927 173.439 55.927 176.17 55.927 178.38 56.505 179.135 57.416 180.66 59.253 180.182 59.43 170.645 60.582 165.465 61.208 163.645 61.818 163.645 62.927 163.645 64.013 164.89 64.475 168.145 64.601 170.62 64.696 173.433 64.809 174.395 64.85 176.577 64.946 176.701 67.5 174.563 68.32 171.913 69.337 156.306 68.996 155.633 67.906zM206.145 66.427C206.145 65.052 206.505 63.927 206.943 63.927 207.382 63.927 209.5 61.167 211.65 57.793 217.145 49.167 217.48 48.927 224.062 48.927 228.385 48.927 230.25 49.387 231.49 50.757 236.31 56.08 228.604 63.065 217.84 63.13 213.72 63.154 212.73 63.57 210.902 66.043 208.274 69.598 206.145 69.77 206.145 66.427zM225.133 57.547C226.501 56.924 227.772 55.629 227.956 54.67 228.236 53.22 227.53 52.927 223.744 52.927 219.747 52.927 219.017 53.275 217.711 55.801 216.894 57.38 216.499 58.948 216.834 59.282 217.552 60 221.624 59.15 225.133 57.548zM236.491 67.328C232.508 65.361 231.927 63.13 234.121 58.23 237.605 50.45 247.331 45.854 252.771 49.418 257.899 52.778 253.444 63.077 244.946 67.517 241.555 69.287 240.415 69.262 236.49 67.327zM246.807 61.176C249.558 58.23 251.186 54.895 250.469 53.677 249.707 52.383 245.179 52.86 242.679 54.497 239.446 56.617 237.036 60.477 237.764 62.375 238.756 64.962 243.913 64.28 246.807 61.177zM278.555 67.553C277.934 65.935 288.768 49.577 290.773 49.104 293.31 48.506 292.2 52.618 288.218 58.564 284.33 64.366 280.528 68.927 279.575 68.927 279.304 68.927 278.845 68.31 278.555 67.553zM295.513 67.443C295.204 66.64 296.496 64.09 298.42 61.712 300.323 59.355 302.38 56.463 302.99 55.285 304.005 53.326 303.796 53.085 300.56 52.478 297.958 51.989 297.107 51.365 297.347 50.12 297.543 49.103 298.565 48.456 299.909 48.5 301.139 48.539 305.97 48.65 310.645 48.749 317.158 48.886 319.145 49.253 319.145 50.32 319.145 51.997 316.993 52.927 313.118 52.927 310.735 52.927 309.29 54.182 304.507 60.395 298.464 68.245 296.432 69.837 295.513 67.444zM341.033 67.836C339.594 67.295 337.58 65.295 336.554 63.39 334.766 60.069 334.762 59.795 336.449 56.677 337.417 54.89 339.801 52.39 341.747 51.122 346.016 48.342 354.427 47.086 356.617 48.904 358.878 50.782 357.503 51.927 352.986 51.927 350.765 51.927 347.397 52.663 345.502 53.562 342.08 55.187 338.557 60.167 339.618 61.884 340.456 63.24 346.471 65.002 349.22 64.697 351.07 64.492 351.645 64.903 351.645 66.427 351.645 68.062 350.914 68.463 347.645 68.622 345.445 68.73 342.47 68.375 341.032 67.835zM359.621 67.89C359.269 67.319 360.48 65.182 362.314 63.14 364.147 61.098 367.156 57.065 369.001 54.177 372.2 49.17 374.325 47.792 375.62 49.888 376.641 51.538 363.729 68.875 361.454 68.91 360.8 68.92 359.974 68.46 359.622 67.89zM373.145 67.496C373.145 66.708 374.608 65.027 376.395 63.76 378.183 62.493 382.935 58.412 386.955 54.692 390.975 50.972 394.632 47.927 395.082 47.927 397.078 47.927 397.946 51.042 398.283 59.405 398.593 67.067 398.408 68.43 397.025 68.704 396.086 68.889 395.189 68.204 394.895 67.075 394.477 65.484 393.307 65.055 388.514 64.74 383.596 64.416 382.144 64.724 379.55 66.64 376.043 69.233 373.145 69.62 373.145 67.496zM394.145 57.927C394.145 54.322 393.217 54.158 390.31 57.252 387.88 59.839 388.324 60.927 391.812 60.927 393.738 60.927 394.145 60.404 394.145 57.927zM422.26 66.756C421.757 65.476 420.833 62.515 420.206 60.177 419.578 57.84 418.692 55.927 418.236 55.927 417.78 55.927 415.714 58.627 413.646 61.927 411.101 65.983 409.24 67.927 407.897 67.927 405.058 67.927 405.896 65.76 412.236 56.695 418.781 47.34 420.728 46.925 422.88 54.427 423.67 57.177 424.66 59.79 425.084 60.232 425.508 60.675 427.607 58.316 429.75 54.991 433.56 49.078 437.24 46.906 437.062 50.677 436.962 52.762 426.185 68.095 424.41 68.68 423.73 68.902 422.763 68.037 422.26 66.756zM437.551 67.776C436.258 65.683 439.904 64.084 443.908 64.986 450.278 66.424 455.634 62.166 450.645 59.63 449.545 59.069 447.97 58.3 447.145 57.919 446.32 57.538 445.508 56.086 445.34 54.693 444.868 50.779 449.18 47.923 455.53 47.943 465.325 47.973 465.856 51.578 456.145 52.12 450.098 52.458 448.89 54.118 453.145 56.24 454.52 56.925 456.271 58.79 457.035 60.386 458.36 63.146 458.276 63.423 455.27 66.107 452.452 68.626 451.372 68.927 445.188 68.927 441.042 68.927 437.978 68.465 437.551 67.776zM255.533 66.746C255.187 66.186 255.851 64.536 257.008 63.078 258.166 61.62 260.57 58.075 262.35 55.2 265.703 49.783 267.801 48.183 269.424 49.807 270.017 50.4 269.024 52.777 266.757 56.193 262.093 63.22 262.117 64.249 266.932 63.576 271.27 62.969 273.696 64.049 272.864 66.217 272.424 67.366 270.435 67.716 264.227 67.737 259.792 67.752 255.88 67.307 255.533 66.747zM316.482 66.362C316.115 65.405 317.039 63.556 318.857 61.612 320.494 59.86 323.33 56.29 325.159 53.677 328.18 49.361 332.145 47.257 332.145 49.97 332.145 51.123 325.175 60.865 321.265 65.177 318.417 68.318 317.335 68.586 316.482 66.362zM194.145 39.927C194.145 38.827 194.547 37.927 195.038 37.927 197.303 37.927 196.706 34.663 193.506 29.547 191.583 26.471 190.29 23.5 190.636 22.941 192.042 20.668 194.718 22.138 196.57 26.203 197.629 28.526 198.95 30.731 199.507 31.102 200.063 31.472 203.047 29.11 206.139 25.852 209.229 22.593 212.269 19.927 212.893 19.927 215.845 19.927 214.88 22.535 209.991 27.768A862.553 862.553 0 0 0 200.855 37.71C196.768 42.258 194.145 43.125 194.145 39.927zM236.057 40.321C235.251 39.35 235.601 38.178 237.434 35.722 238.786 33.91 241.125 30.177 242.632 27.427 244.139 24.677 245.883 22.097 246.509 21.693 248.462 20.43 258.662 20.853 260.609 22.277 263.022 24.042 262.151 30.228 259.02 33.562 254.222 38.668 238.52 43.29 236.057 40.322zM251.145 34.611C260.042 28.18 260.312 23.027 251.665 24.68 249.01 25.186 243.206 32.75 243.164 35.757 243.142 37.268 248.542 36.494 251.144 34.612zM298.645 41.215C297.545 40.95 296.263 40.372 295.795 39.931 295.329 39.489 297.91 35.09 301.533 30.156 308.342 20.879 309.79 19.927 317.115 19.927 323.054 19.927 324.707 26.202 319.643 29.521 317.74 30.768 317.393 31.675 317.817 34.29 318.503 38.516 317.114 39.564 309.11 40.862 302.308 41.967 301.84 41.983 298.645 41.214zM312.395 36.287C314.735 35.626 314.612 34.21 312.145 33.427 309.077 32.454 309.762 30.077 313.645 28.226 315.57 27.308 317.145 26.19 317.145 25.742 317.145 24.786 313.993 24.665 311.727 25.534 309.944 26.218 302.145 35.67 302.145 37.146 302.145 38.028 307.955 37.54 312.395 36.286zM326.983 41.196C320.203 40.656 320.157 39.036 326.65 29.377L332.204 21.117 337.424 20.747C345.051 20.21 348.307 20.845 347.936 22.798 347.699 24.043 346.222 24.5 341.67 24.734 335.924 25.029 332.656 26.326 333.64 27.92 333.9 28.34 336.05 28.467 338.42 28.2 341.615 27.84 343.072 28.135 344.077 29.345 344.821 30.242 345.174 31.232 344.861 31.545 344.547 31.86 341.013 32.296 337.007 32.518 332.374 32.775 329.184 33.46 328.243 34.401 326.093 36.55 327.507 37.314 333.17 37.056 337.036 36.879 338.313 37.202 338.803 38.478 339.162 39.413 338.831 40.513 338.041 41.013 336.653 41.892 335.89 41.905 326.983 41.196zM351.179 40.468C350.325 39.44 351.005 37.79 354.106 33.362 356.328 30.19 358.146 27.22 358.146 26.762 358.145 26.302 357.075 25.927 355.767 25.927 353.285 25.927 350.682 23.723 351.82 22.585 352.182 22.223 356.937 21.927 362.385 21.927 371.28 21.927 372.258 22.107 371.96 23.677 371.718 24.954 370.48 25.511 367.387 25.735 365.054 25.904 363.145 26.448 363.145 26.945 363.145 28.352 354.785 40.773 353.468 41.32 352.821 41.59 351.791 41.205 351.18 40.468zM380.265 37.928C378.497 35.727 376.647 33.927 376.153 33.927 375.659 33.927 374.667 35.122 373.95 36.584 372.207 40.135 369.573 41.755 368.039 40.221 367.156 39.338 367.93 37.63 371.26 33.119 373.672 29.852 376.444 25.715 377.421 23.926L379.198 20.674 386.274 21.371C395.54 22.284 396.316 22.641 395.949 25.805 395.72 27.79 394.55 28.964 391.145 30.631 388.67 31.843 385.79 33.092 384.745 33.407 382.92 33.957 382.928 34.067 384.995 36.267 387.55 38.988 387.72 40.494 385.563 41.32 384.693 41.654 383.87 41.927 383.731 41.927 383.593 41.927 382.033 40.127 380.265 37.927zM388.508 27.911C390.115 26.404 388.25 25.258 384.94 25.72 381.431 26.208 379.145 27.557 379.145 29.138 379.145 30.238 387.146 29.19 388.508 27.912zM411.972 39.829C411.681 37.852 410.961 37.576 405.301 37.272 400.133 36.994 398.485 37.302 396.416 38.929 393.516 41.21 390.146 41.57 390.146 39.597 390.145 38.865 392.282 36.76 394.895 34.92 397.507 33.08 401.703 29.683 404.22 27.373 409.017 22.971 412.798 21.144 414.144 22.578 414.583 23.045 415.1 27.468 415.294 32.405 415.597 40.172 415.42 41.428 413.971 41.714 412.878 41.93 412.187 41.278 411.972 39.829zM410.962 30.677C411.348 27.317 410.194 27.182 407.31 30.252 404.917 32.799 405.43 34.174 408.604 33.72 409.994 33.52 410.746 32.55 410.962 30.677zM423.658 40.95C423.326 40.41 424.038 38.638 425.243 37.009L427.432 34.05 424.142 28.92C421.176 24.301 421.003 23.641 422.391 22.251 423.781 20.864 424.202 21.168 426.634 25.32 428.12 27.854 429.874 29.927 430.532 29.927 431.19 29.927 433.716 27.902 436.145 25.427 440.255 21.24 444.145 19.557 444.145 21.967 444.145 22.539 441.108 26.239 437.395 30.189A3423 3423 0 0 0 428.531 39.65C426.266 42.09 424.632 42.525 423.658 40.95zM83.145 39.499C83.145 38.638 84.645 35.794 86.48 33.18 88.312 30.567 90.674 26.92 91.729 25.076L93.645 21.723 102.895 21.245C111.638 20.795 112.145 20.878 112.145 22.768 112.145 24.508 111.265 24.852 105.395 25.408 95.773 26.32 95.853 26.302 95.395 27.678 95.097 28.571 96.495 28.931 100.312 28.942 103.245 28.95 106.265 29.35 107.023 29.83 109.875 31.637 106.894 32.928 99.836 32.943 95.881 32.95 92.025 33.35 91.267 33.83 88.847 35.363 91.082 36.955 94.955 36.458 99.522 35.873 102.145 36.616 102.145 38.495 102.145 39.283 101.808 39.945 101.395 39.968 100.983 39.991 96.708 40.248 91.895 40.538 84.392 40.992 83.145 40.844 83.145 39.5zM115.538 39.51C115.193 38.61 116.603 36.058 119.053 33.153 121.303 30.482 123.145 27.765 123.145 27.113 123.145 26.425 121.677 25.928 119.645 25.928 116.895 25.928 116.145 25.528 116.145 24.059 116.145 21.804 120.108 21.11 130.95 21.463 138.852 21.721 139.7 22.037 138.8 24.385 138.39 25.455 136.847 25.928 133.76 25.928 129.8 25.928 128.998 26.338 126.432 29.678 124.846 31.74 122.783 34.649 121.847 36.143 119.544 39.816 116.317 41.537 115.538 39.508zM210.145 39.88C210.145 38.811 218.811 24.883 221.182 22.14 222.882 20.173 239.645 20.888 239.645 22.929 239.645 24.028 238.311 24.495 234.645 24.679 226.482 25.09 223.145 25.9 223.145 27.473 223.145 28.572 224.508 28.928 228.72 28.928 233.487 28.928 234.244 29.18 233.959 30.678 233.684 32.108 232.355 32.483 226.676 32.728 220.177 33.01 217.145 34.05 217.145 35.998 217.145 36.452 219.508 36.959 222.395 37.125 226.261 37.348 227.645 37.823 227.645 38.928 227.645 40.125 225.878 40.486 218.895 40.717 212.903 40.914 210.145 40.65 210.145 39.879zM264.233 39.534C263.34 38.457 263.443 37.774 264.683 36.534 266.69 34.525 268.536 34.489 270.144 36.428 271.138 37.624 271.138 38.23 270.145 39.428 268.583 41.31 265.75 41.36 264.233 39.534zM438.628 39.9C438.282 39.34 440.176 36.08 442.838 32.655 445.5 29.23 448.205 25.229 448.851 23.764 449.893 21.397 450.753 21.022 456.565 20.399 463.712 19.634 466.145 20.111 466.145 22.276 466.145 23.286 464.436 23.811 460.13 24.122 454.026 24.564 451.374 25.872 452.591 27.841 452.961 28.438 455.07 28.928 457.278 28.928 460.566 28.928 461.229 29.244 460.944 30.678 460.658 32.12 459.5 32.428 454.337 32.428 449.943 32.428 447.807 32.86 447.177 33.88 445.737 36.204 446.93 36.928 452.204 36.928 455.826 36.928 457.145 37.31 457.145 38.36 457.145 39.148 456.358 40.02 455.395 40.295 452.14 41.23 439.262 40.926 438.628 39.901zM464.794 39.454C464.434 38.514 472.1 25.722 475.149 22.178 477.354 19.614 490.106 21.208 492.307 24.324 493.147 25.512 491.518 29.858 489.327 32.279 485.779 36.2 479.343 39.03 472.249 39.786 467.463 40.298 465.077 40.191 464.794 39.454zM478.914 34.38C483.127 32.62 487.145 29.18 487.145 27.333 487.145 25.414 481.63 24.609 478.78 26.113 476.679 27.22 471.145 34.003 471.145 35.472 471.145 36.448 475.39 35.852 478.914 34.38zM54.145 39.304C54.145 38.96 55.833 36.094 57.895 32.934 59.958 29.774 62.378 25.838 63.274 24.188 64.678 21.603 65.652 21.095 70.332 20.51 77.284 19.641 81.145 21.002 81.145 24.32 81.145 25.8 80.115 27.51 78.527 28.668 76.222 30.347 76.06 30.821 77.185 32.62 78.842 35.274 77.849 37.71 74.605 38.943 71.794 40.012 54.146 40.323 54.146 39.303zM73.116 35.967C75.191 34.654 73.97 33.823 68.441 32.79 64.436 32.042 63.444 32.168 62.427 33.558 61.757 34.473 61.447 35.606 61.737 36.075 62.443 37.22 71.266 37.136 73.116 35.967zM73.764 26.883C75.704 26.145 76.164 25.547 75.389 24.772 73.716 23.098 66.741 25.075 66.303 27.347 65.923 29.316 67.646 29.209 73.763 26.883zM132.719 39.047C132.419 38.562 133.405 36.587 134.909 34.657 136.415 32.726 138.832 29.14 140.28 26.686 143.144 21.84 145.448 20.962 155.36 20.939 160.388 20.927 162.798 23.063 161.518 26.398 160.777 28.33 154.055 31.928 151.185 31.928 148.764 31.928 148.334 35.402 150.645 36.289 151.47 36.606 152.145 37.554 152.145 38.396 152.145 40.735 147.081 40.4 146.46 38.02 146.185 36.971 145.214 35.846 144.303 35.52 143.39 35.193 142.123 34.677 141.483 34.373 140.846 34.07 139.51 35.194 138.519 36.873 136.788 39.804 133.863 40.9 132.718 39.048zM150.094 28.567C155.492 26.953 157.17 24.273 152.154 25.276 150.362 25.634 148.067 25.928 147.055 25.928 146.043 25.928 144.734 26.828 144.145 27.928 142.843 30.36 143.762 30.46 150.094 28.568zM157.145 39.05C157.145 37.08 177.126 20.928 179.564 20.928 181.556 20.928 183.042 24.59 183.653 31.006 183.905 33.658 184.173 36.187 184.247 36.627 184.859 40.25 180.778 41.457 179.855 37.927 179.407 36.215 178.491 35.928 173.45 35.928 169.542 35.928 166.251 36.6 163.645 37.928 159.445 40.07 157.145 40.468 157.145 39.05zM179.145 29.428C179.145 26.52 178.031 26.3 174.62 28.538 171.61 30.507 172.274 31.927 176.204 31.927 178.674 31.928 179.145 31.528 179.145 29.428zM270.61 31.869C270.249 31.287 271.075 29.149 272.444 27.119A277.05 277.05 0 0 0 277.552 19.178C280.124 15.002 283.145 13.503 283.145 16.4 283.145 18.68 274.02 32.928 272.56 32.928 271.846 32.928 270.97 32.45 270.61 31.869z"/></svg>