<svg xmlns="http://www.w3.org/2000/svg" viewBox="0 0 200 200">
  <path fill="#2b0245" d="M49.96399918 12.552527h99.927993l24.85894 24.85894v125.03307l-24.85894 24.85893h-99.927993l-25.105063-24.85893V37.411467Z" />
  <path fill="#feb93f" d="M75.72399343 50.0232853h4.17349614V29.21384056h7.3611287v-4.04727619H68.39572633v4.04727619h7.3282671zm20.11164265 0h4.4035341l8.21554586-24.85672093h-4.33781472L98.23457087 44.5433496 92.5822803 25.16656437h-4.92932751zm25.92823742.35815966c3.4176667 0 6.37526895-1.11030852 8.80706822-3.29512733v-11.0315096h-9.72720667v3.93982933h5.61943375V45.295488c-1.15017068.644702-2.56324763 1.0386912-4.14063741 1.0386912-4.76501468 0-7.82119123-3.47421238-7.82119123-9.02578628 0-5.37248885 2.85900881-8.41690337 7.91978467-8.41690337 2.00458974 0 4.33780515.46561695 6.11236267 1.14613805l1.18303516-3.61747833c-1.97172526-1.03868076-4.4692535-1.61174457-7.03250112-1.61174457-7.65688797 0-12.61907997 5.2292229-12.61907997 13.03723293 0 7.52148857 4.66643081 12.53580732 11.69893193 12.53580732z" style="line-height:1.25" />
  <path fill="#feb93f" d="M45.10694487 165.74229554h1.54010177v-7.80116586h2.71639908v-1.51725932H42.4026722v1.51725932h2.70427267zm5.23876618 0h1.55222818v-6.52558717h-1.55222818zm.78824097-7.73402184c.56995904 0 .94588897-.40282207.94588897-1.04732477 0-.64449217-.37592993-1.06074095-.94588897-1.06074095-.58208545 0-.95801633.41624878-.95801633 1.06074095 0 .6445027.37593088 1.04732477.95801633 1.04732477zm6.40293422 7.73402184h1.54010082v-4.0281366c0-1.61125674-.82462113-2.60486418-2.14644003-2.60486418-.71548064 0-1.38245377.28197124-1.9039053.8190498l-.26678943-.7116362h-1.11566433v6.52558718h1.55222817v-4.6726393c.35167712-.30882464.75186081-.46995557 1.20055201-.46995557.7518608 0 1.1399181.46995558 1.1399181 1.3561389zm3.56525401 2.91367831h1.67349601l.94588898-2.91367831 2.25558241-6.52558717h-1.54010177l-1.4673405 4.94118383-1.38245377-4.94118383h-1.70987618l2.29196163 6.52558717zm10.52601611-2.91367831h1.62498946l3.03169603-9.31842518h-1.6007357l-2.17069378 7.26406625-2.08580706-7.26406625h-1.81901762zm8.46448848.13426701c.69122689 0 1.4430877-.16113094 2.08580706-.45651836l-.35167617-1.18159179c-.47294496.21483774-.99439649.33567805-1.4915952.33567805-1.05502947 0-1.70987619-.55051579-1.89177795-1.62468344h3.819937c.03637921-.26854454.07275842-.6713561.07275842-.96675404 0-1.78580386-.98226913-2.90025161-2.55875107-2.90025161-1.7583837 0-2.93468195 1.3829923-2.93468195 3.4104873 0 2.0946285 1.23693218 3.38363389 3.24997796 3.38363389zm-1.68562242-3.97442979c.08488483-.98018074.52145152-1.5038326 1.26118498-1.5038326.76398816 0 1.2126784.55050526 1.2126784 1.5038326zm7.90664728 3.97442979c.7154797 0 1.38245282-.17455764 1.94028546-.51023569l-.33955072-1.18158126c-.42443744.20141104-.8731277.30882465-1.26118497.30882465-1.09141058 0-1.72200354-.7519163-1.72200354-2.0543484 0-1.23529859.56995904-1.90665469 1.6128621-1.90665469.4365648 0 .93376257.10741361 1.35820001.29539795l.32742336-1.3561389c-.50932512-.25511784-1.12779073-.38938485-1.73412994-.38938485-1.9039053 0-3.14083747 1.396419-3.14083747 3.5447543 0 2.0409217 1.10353698 3.24936689 2.95893571 3.24936689zm5.50553947-.04028011c.40018368 0 .83674753-.09396586 1.2126784-.22826444l-.31529695-1.22186136c-.1697744.0806023-.37592993.1208403-.55783169.1208403-.55783169 0-.9095088-.36253144-.9095088-.92647393v-2.99424904h1.47946784v-1.3695656h-1.47946785v-1.89321747H89.7212757v1.89321747h-.82462113v1.3695656h.82462113v3.10166264c0 1.3158588.78824097 2.14834583 2.09793347 2.14834583zm4.8749598.04028011c1.85539683 0 3.10445446-1.4098457 3.10445446-3.5044742 0-2.0006416-1.1520464-3.289647-2.9225489-3.289647-1.86753273 0-3.11658656 1.396419-3.11658656 3.50447421 0 1.9872149 1.13991714 3.28964699 2.934681 3.28964699zm.13339044-1.4501258c-.9095088 0-1.5037121-.77878024-1.5037121-1.9872149 0-1.18159179.54569768-1.90665469 1.40670087-1.90665469.90950881 0 1.50372161.79219641 1.50372161 2.0140683 0 1.15472786-.54570718 1.87980128-1.40671038 1.87980128zm4.35351209 1.31585879h1.55222722v-4.24297433c.35167522-.46994506.8488768-.7384896 1.39457447-.7384896.24253759 0 .53358079.0536647.75186556.1476937l.35167522-1.57097663c-.24253758-.12084031-.55783359-.18797382-.8731296-.18797382-.70335043 0-1.34606885.37595815-1.7947648 1.03388755l-.14551686-.96675404h-1.23693122zm11.5082995.13426701c1.26118403 0 2.3525984-.41623826 3.2499808-1.2352986v-4.1355502h-3.58952961v1.47697922h2.0736816v1.98721489c-.42444314.24169114-.94589752.38938485-1.52798392.38938485-1.7583761 0-2.88616968-1.30242157-2.88616968-3.3836339 0-2.01406829 1.05502566-3.15536944 2.9225584-3.15536944.73972964 0 1.60073284.17454711 2.25557766.42966495l.43656005-1.3561389c-.72760325-.38938485-1.64923846-.60422259-2.59512648-.60422259-2.82553766 0-4.65668169 1.9603615-4.65668169 4.88747703 0 2.8196914 1.72199689 4.69949269 4.31713287 4.69949269zm4.77795523-.13426701h1.55222723v-4.24297433c.35167521-.46994506.84886728-.7384896 1.39457447-.7384896.24253758 0 .53358078.0536647.75186555.1476937l.35167522-1.57097663c-.24253758-.12084031-.55783359-.18797382-.8731296-.18797382-.70335043 0-1.34606885.37595815-1.7947648 1.03388755l-.14551685-.96675404h-1.23693122zm8.67064494 0h1.11565768v-3.92072299c0-1.77237715-.9095088-2.7391312-2.655768-2.7391312-.83674088 0-1.7462497.22825392-2.43748323.631076l.36381113 1.19500796c.6184656-.26854454 1.200552-.40281155 1.74624969-.40281155.94589752 0 1.455216.40281155 1.455216 1.18158126v.17455764c-2.54662087.04030115-3.67441446.6847828-3.67441446 2.0677751 0 1.18159178.78824477 1.94693479 2.0373024 1.94693479.75185605 0 1.38244806-.26854455 1.83114402-.77876971zm-.41231674-1.67839025c-.2910432.29538742-.67909763.46994506-1.12779358.46994506-.5942033 0-.99439364-.33567805-.99439364-.83248703 0-.59078537.6063392-.85932992 2.12218722-.88618332zm6.11187867 1.81265726c1.58860644 0 2.72852643-1.4501258 2.72852643-3.5044742 0-1.9469348-1.05502566-3.289647-2.57087367-3.289647-.71548635 0-1.34607836.30882465-1.79476481.85932992l-.2789168-.7250629h-1.04290875v9.43926548h1.5037216v-3.3433538c.37592803.36253146.885256.5639425 1.455216.5639425zm-1.455216-2.18862594v-2.60485366c.30316961-.34910475.71548635-.55051579 1.1762992-.55051579.885256 0 1.4430896.7519163 1.4430896 1.9737882 0 1.18158125-.50932797 1.92008138-1.37033117 1.92008138-.52144487 0-.98226723-.28197124-1.24905762-.73850013zm9.4346179 2.05435893h1.55222724v-4.09528062c0-1.57096612-.83674089-2.53772016-2.17069284-2.53772016-.63059202 0-1.23693122.22825392-1.72199688.6982095v-3.98785649h-1.52797442v9.92264777h1.52797442v-4.61893249c.33954881-.36253145.75185605-.52366238 1.1884256-.52366238.76398246 0 1.15203689.46995558 1.15203689 1.3561389zm3.17721289 0h1.55222723v-6.52558717h-1.55222723zm.78823526-7.73402184c.56996 0 .94588803-.40282207.94588803-1.04732477 0-.64449217-.37592803-1.06074095-.94588803-1.06074095-.5820864 0-.95801442.41624878-.95801442 1.06074095 0 .6445027.37592803 1.04732477.95801442 1.04732477zm5.10537765 7.86828885c.71547683 0 1.38244806-.17455764 1.94028165-.51023569l-.33954882-1.18158126c-.42443364.20141104-.8731296.30882465-1.26118402.30882465-1.09141438 0-1.7220064-.7519163-1.7220064-2.0543484 0-1.23529859.56996-1.90665469 1.61285926-1.90665469.43656955 0 .93377112.10741361 1.35820476.29539795l.32742241-1.3561389c-.50932797-.25511784-1.12779358-.38938485-1.73413279-.38938485-1.90390245 0-3.14083367 1.396419-3.14083367 3.5447543 0 2.0409217 1.10354078 3.24936689 2.95893761 3.24936689zm5.10535862 0c1.61285925 0 2.57087367-.79219641 2.57087367-2.0946285 0-2.44374378-3.33486563-1.62468345-3.33486563-2.7257045 0-.38939538.42444315-.631076 1.13991999-.631076.48507516 0 1.06716156.10741361 1.61285925.28197125l.3274224-1.2890054c-.54569768-.21483773-1.23693121-.33567804-1.90390244-.33567804-1.68561767 0-2.6678944.7519163-2.6678944 2.0946285 0 2.43030655 3.28636001 1.5038326 3.28636001 2.6854244 0 .41623825-.40018083.67135609-1.05502566.67135609-.56996 0-1.35820476-.17455764-1.97667037-.44309166l-.33954882 1.27556817c.66697123.32225135 1.52797442.51023569 2.340472.51023569z" style="line-height:1.25" />
  <path fill="#feb93f" d="m88.43827018 49.901087.09405 20.72896-14.034286-13.26172 11.185364 51.20152 13.092223 15.10503-32.492071 16.53594 34.610812 2.66908 4.66896 5.65651 3.68712-10.7642 17.51831-11.75691-2.3394-21.31549 8.25376.0517-11.96723-8.39845-10.18232 6.90242-6.27713-17.7245zm-11.184845 12.30519 25.142647 23.3009-15.607312 21.17494zm43.345677 36.17608 7.61917 4.92735-15.23886.12609zm-8.85786 8.31991 12.42663 9.82421.93793 8.10079-7.68946-1.88774zm1.77767 17.62993-28.653033 15.6254-12.380123-.93327 27.803986-14.4291z" />
</svg>