<svg xmlns="http://www.w3.org/2000/svg" viewBox="0 0 200 200">
  <path fill="#2b0245" d="M49.96399918 12.552527h99.927993l24.85894 24.85894v125.03307l-24.85894 24.85893h-99.927993l-25.105063-24.85893V37.411467Z" />
  <path fill="#feb93f" d="M 75.724 50.0233 H 79.8975 V 29.2138 H 87.2586 V 25.1666 H 68.3957 V 29.2138 H 75.724 Z M 95.8356 50.0233 H 100.2392 L 108.4547 25.1666 H 104.1169 L 98.2346 44.5433 L 92.5823 25.1666 H 87.653 Z M 121.7639 50.3814 C 125.1815 50.3814 128.1391 49.2711 130.5709 47.0863 V 36.0548 H 120.8437 V 39.9946 H 126.4632 V 45.2955 C 125.313 45.9402 123.8999 46.3342 122.3225 46.3342 C 117.5575 46.3342 114.5013 42.86 114.5013 37.3084 C 114.5013 31.9359 117.3603 28.8915 122.4211 28.8915 C 124.4257 28.8915 126.7589 29.3571 128.5335 30.0376 L 129.7165 26.4201 C 127.7448 25.3815 125.2473 24.8084 122.684 24.8084 C 115.0271 24.8084 110.0649 30.0376 110.0649 37.8456 C 110.0649 45.3671 114.7314 50.3814 121.7639 50.3814 Z" />
  <path fill="#feb93f" d="M 45.1069 165.7423 H 46.647 V 157.9411 H 49.3634 V 156.4239 H 42.4027 V 157.9411 H 45.1069 Z M 50.3457 165.7423 H 51.8979 V 159.2167 H 50.3457 Z M 51.134 158.0083 C 51.7039 158.0083 52.0798 157.6055 52.0798 156.9609 C 52.0798 156.3165 51.7039 155.9002 51.134 155.9002 C 50.5519 155.9002 50.1759 156.3165 50.1759 156.9609 C 50.1759 157.6055 50.5519 158.0083 51.134 158.0083 Z M 57.5369 165.7423 H 59.077 V 161.7142 C 59.077 160.1029 58.2524 159.1093 56.9305 159.1093 C 56.2151 159.1093 55.5481 159.3913 55.0266 159.9283 L 54.7599 159.2167 H 53.6442 V 165.7423 H 55.1964 V 161.0697 C 55.5481 160.7608 55.9483 160.5997 56.397 160.5997 C 57.1488 160.5997 57.5369 161.0697 57.5369 161.9558 Z M 61.1021 168.656 H 62.7756 L 63.7215 165.7423 L 65.9771 159.2167 H 64.437 L 62.9697 164.1579 L 61.5872 159.2167 H 59.8773 L 62.1693 165.7423 Z M 71.6282 165.7423 H 73.2531 L 76.2848 156.4239 H 74.6841 L 72.5134 163.6879 L 70.4276 156.4239 H 68.6086 Z M 80.0926 165.8766 C 80.7839 165.8766 81.5357 165.7154 82.1785 165.42 L 81.8268 164.2385 C 81.3538 164.4533 80.8324 164.5741 80.3352 164.5741 C 79.2802 164.5741 78.6253 164.0236 78.4434 162.9494 H 82.2633 C 82.2997 162.6809 82.3361 162.2781 82.3361 161.9827 C 82.3361 160.1969 81.3538 159.0824 79.7773 159.0824 C 78.019 159.0824 76.8427 160.4654 76.8427 162.4929 C 76.8427 164.5876 78.0796 165.8766 80.0926 165.8766 Z M 78.407 161.9021 C 78.4919 160.922 78.9285 160.3983 79.6682 160.3983 C 80.4322 160.3983 80.8809 160.9488 80.8809 161.9021 Z M 86.3137 165.8766 C 87.0291 165.8766 87.6961 165.702 88.254 165.3663 L 87.9144 164.1847 C 87.49 164.3862 87.0413 164.4936 86.6532 164.4936 C 85.5618 164.4936 84.9312 163.7417 84.9312 162.4392 C 84.9312 161.2039 85.5012 160.5326 86.5441 160.5326 C 86.9806 160.5326 87.4778 160.64 87.9023 160.828 L 88.2297 159.4718 C 87.7204 159.2167 87.1019 159.0824 86.4956 159.0824 C 84.5917 159.0824 83.3547 160.4789 83.3547 162.6272 C 83.3547 164.6681 84.4583 165.8766 86.3137 165.8766 Z M 91.8192 165.8363 C 92.2194 165.8363 92.656 165.7423 93.0319 165.608 L 92.7166 164.3862 C 92.5468 164.4668 92.3407 164.507 92.1588 164.507 C 91.6009 164.507 91.2493 164.1445 91.2493 163.5805 V 160.5863 H 92.7287 V 159.2167 H 91.2493 V 157.3235 H 89.7213 V 159.2167 H 88.8967 V 160.5863 H 89.7213 V 163.6879 C 89.7213 165.0038 90.5095 165.8363 91.8192 165.8363 Z M 96.6942 165.8766 C 98.5496 165.8766 99.7986 164.4667 99.7986 162.3721 C 99.7986 160.3714 98.6466 159.0824 96.8761 159.0824 C 95.0085 159.0824 93.7595 160.4789 93.7595 162.5869 C 93.7595 164.5741 94.8994 165.8766 96.6942 165.8766 Z M 96.8276 164.4264 C 95.9181 164.4264 95.3238 163.6477 95.3238 162.4392 C 95.3238 161.2576 95.8695 160.5326 96.7305 160.5326 C 97.6401 160.5326 98.2343 161.3248 98.2343 162.5466 C 98.2343 163.7014 97.6886 164.4264 96.8276 164.4264 Z M 101.1811 165.7423 H 102.7333 V 161.4993 C 103.085 161.0294 103.5822 160.7608 104.1279 160.7608 C 104.3704 160.7608 104.6615 160.8145 104.8797 160.9085 L 105.2314 159.3375 C 104.9889 159.2167 104.6736 159.1496 104.3583 159.1496 C 103.6549 159.1496 103.0122 159.5255 102.5635 160.1835 L 102.418 159.2167 H 101.1811 Z M 112.6894 165.8766 C 113.9506 165.8766 115.042 165.4603 115.9394 164.6413 V 160.5057 H 112.3498 V 161.9827 H 114.4235 V 163.9699 C 113.9991 164.2116 113.4776 164.3593 112.8955 164.3593 C 111.1371 164.3593 110.0094 163.0569 110.0094 160.9757 C 110.0094 158.9616 111.0644 157.8203 112.9319 157.8203 C 113.6716 157.8203 114.5326 157.9948 115.1875 158.25 L 115.624 156.8938 C 114.8964 156.5044 113.9748 156.2896 113.0289 156.2896 C 110.2034 156.2896 108.3722 158.25 108.3722 161.1771 C 108.3722 163.9968 110.0942 165.8766 112.6894 165.8766 Z M 117.4673 165.7423 H 119.0196 V 161.4993 C 119.3712 161.0294 119.8684 160.7608 120.4141 160.7608 C 120.6567 160.7608 120.9477 160.8145 121.166 160.9085 L 121.5177 159.3375 C 121.2751 159.2167 120.9598 159.1496 120.6445 159.1496 C 119.9412 159.1496 119.2985 159.5255 118.8498 160.1835 L 118.7043 159.2167 H 117.4673 Z M 126.138 165.7423 H 127.2536 V 161.8216 C 127.2536 160.0492 126.3441 159.0824 124.5979 159.0824 C 123.7611 159.0824 122.8516 159.3107 122.1604 159.7135 L 122.5242 160.9085 C 123.1427 160.64 123.7247 160.5057 124.2704 160.5057 C 125.2163 160.5057 125.7257 160.9085 125.7257 161.6873 V 161.8619 C 123.179 161.9022 122.0512 162.5466 122.0512 163.9296 C 122.0512 165.1112 122.8395 165.8766 124.0885 165.8766 C 124.8404 165.8766 125.471 165.608 125.9197 165.0978 Z M 125.7257 164.0639 C 125.4346 164.3593 125.0466 164.5339 124.5979 164.5339 C 124.0037 164.5339 123.6035 164.1982 123.6035 163.7014 C 123.6035 163.1106 124.2098 162.842 125.7257 162.8152 Z M 131.8375 165.8766 C 133.4261 165.8766 134.5661 164.4264 134.5661 162.3721 C 134.5661 160.4252 133.511 159.0824 131.9952 159.0824 C 131.2797 159.0824 130.6491 159.3913 130.2004 159.9418 L 129.9215 159.2167 H 128.8786 V 168.656 H 130.3823 V 165.3126 C 130.7582 165.6752 131.2676 165.8766 131.8375 165.8766 Z M 130.3823 163.6879 V 161.0831 C 130.6855 160.734 131.0978 160.5326 131.5586 160.5326 C 132.4439 160.5326 133.0017 161.2845 133.0017 162.5064 C 133.0017 163.6879 132.4924 164.4264 131.6314 164.4264 C 131.1099 164.4264 130.6491 164.1445 130.3823 163.6879 Z M 139.8169 165.7423 H 141.3692 V 161.647 C 141.3692 160.076 140.5324 159.1093 139.1985 159.1093 C 138.5679 159.1093 137.9615 159.3375 137.4765 159.8075 V 155.8196 H 135.9485 V 165.7423 H 137.4765 V 161.1234 C 137.816 160.7608 138.2283 160.5997 138.6649 160.5997 C 139.4289 160.5997 139.8169 161.0697 139.8169 161.9558 Z M 142.9941 165.7423 H 144.5464 V 159.2167 H 142.9941 Z M 143.7824 158.0083 C 144.3523 158.0083 144.7283 157.6055 144.7283 156.9609 C 144.7283 156.3165 144.3523 155.9002 143.7824 155.9002 C 143.2003 155.9002 142.8244 156.3165 142.8244 156.9609 C 142.8244 157.6055 143.2003 158.0083 143.7824 158.0083 Z M 148.8878 165.8766 C 149.6032 165.8766 150.2702 165.702 150.828 165.3663 L 150.4885 164.1847 C 150.0641 164.3862 149.6154 164.4936 149.2273 164.4936 C 148.1359 164.4936 147.5053 163.7417 147.5053 162.4392 C 147.5053 161.2039 148.0753 160.5326 149.1182 160.5326 C 149.5547 160.5326 150.0519 160.64 150.4764 160.828 L 150.8038 159.4718 C 150.2945 159.2167 149.676 159.0824 149.0697 159.0824 C 147.1658 159.0824 145.9288 160.4789 145.9288 162.6272 C 145.9288 164.6681 147.0324 165.8766 148.8878 165.8766 Z M 153.9931 165.8766 C 155.606 165.8766 156.564 165.0844 156.564 163.7819 C 156.564 161.3382 153.2291 162.1573 153.2291 161.0562 C 153.2291 160.6668 153.6536 160.4252 154.369 160.4252 C 154.8541 160.4252 155.4362 160.5326 155.9819 160.7071 L 156.3093 159.4181 C 155.7636 159.2033 155.0724 159.0824 154.4054 159.0824 C 152.7198 159.0824 151.7375 159.8344 151.7375 161.1771 C 151.7375 163.6074 155.0239 162.6809 155.0239 163.8625 C 155.0239 164.2787 154.6237 164.5339 153.9689 164.5339 C 153.3989 164.5339 152.6107 164.3593 151.9922 164.0908 L 151.6526 165.3663 C 152.3196 165.6886 153.1806 165.8766 153.9931 165.8766 Z" />
  <path fill="#feb93f" d="M 88.4383 49.9011 L 88.5323 70.63 L 74.498 57.3683 L 85.6834 108.5698 L 98.7756 123.6749 L 66.2836 140.2108 L 100.8944 142.8799 L 105.5633 148.5364 L 109.2504 137.7722 L 126.7688 126.0153 L 124.4294 104.6998 L 132.6831 104.7515 L 120.7159 96.3531 L 110.5336 103.2555 L 104.2564 85.531 Z M 77.2534 62.2063 L 102.3961 85.5072 L 86.7888 106.6821 Z M 120.5991 98.3824 L 128.2183 103.3097 L 112.9794 103.4358 Z M 111.7412 106.7023 L 124.1679 116.5265 L 125.1058 124.6273 L 117.4163 122.7395 Z M 113.5189 124.3322 L 84.8659 139.9576 L 72.4858 139.0243 L 100.2897 124.5952 Z" />
</svg>