<svg xmlns="http://www.w3.org/2000/svg" width="200" height="200" viewBox="0 0 200 200"><path style="fill:#2B0245FF;stroke:none;" d="M50,10H150L175,35V165L150,190H50L25,165V35"/><path style="fill:#FEB93FFF;stroke:none;" d="M44.4609375,168.3984375H46V160.6015625H48.71875V159.0859375H41.7578125V160.6015625H44.4609375M49.6953125,168.3984375H51.25V161.875H49.6953125M50.484375,160.671875C51.0546875,160.671875,51.4296875,160.265625,51.4296875,159.6171875C51.4296875,158.9765625,51.0546875,158.5625,50.484375,158.5625C49.90625,158.5625,49.53125,158.9765625,49.53125,159.6171875C49.53125,160.265625,49.90625,160.671875,50.484375,160.671875M56.890625,168.3984375H58.4296875V164.375C58.4296875,162.765625,57.6015625,161.765625,56.28125,161.765625C55.5703125,161.765625,54.8984375,162.046875,54.3828125,162.5859375L54.109375,161.875H53V168.3984375H54.546875V163.7265625C54.8984375,163.421875,55.3046875,163.2578125,55.75,163.2578125C56.5,163.2578125,56.890625,163.7265625,56.890625,164.6171875M60.453125,171.3125H62.1328125L63.0703125,168.3984375L65.328125,161.875H63.7890625L62.3203125,166.8203125L60.9375,161.875H59.2265625L61.5234375,168.3984375M70.984375,168.3984375H72.609375L75.640625,159.0859375H74.0390625L71.8671875,166.34375L69.78125,159.0859375H67.9609375M79.4453125,168.5390625A5.140625,5.140625,0,0,0,81.53125,168.078125L81.1796875,166.8984375A3.6640625,3.6640625,0,0,1,79.6875,167.234375C78.6328125,167.234375,77.9765625,166.6796875,77.796875,165.609375H81.6171875C81.65625,165.34375,81.6875,164.9375,81.6875,164.640625C81.6875,162.859375,80.703125,161.7421875,79.1328125,161.7421875C77.375,161.7421875,76.1953125,163.125,76.1953125,165.1484375C76.1953125,167.25,77.4296875,168.5390625,79.4453125,168.5390625M77.7578125,164.5625C77.84375,163.578125,78.28125,163.0546875,79.0234375,163.0546875C79.78125,163.0546875,80.234375,163.609375,80.234375,164.5625M85.6640625,168.5390625C86.3828125,168.5390625,87.046875,168.359375,87.609375,168.0234375L87.265625,166.84375A3.03125,3.03125,0,0,1,86.0078125,167.15625C84.9140625,167.15625,84.28125,166.3984375,84.28125,165.1015625C84.28125,163.859375,84.8515625,163.1953125,85.8984375,163.1953125C86.3359375,163.1953125,86.828125,163.296875,87.2578125,163.484375L87.5859375,162.1328125A3.9453125,3.9453125,0,0,0,85.8515625,161.7421875C83.9453125,161.7421875,82.7109375,163.140625,82.7109375,165.2890625C82.7109375,167.328125,83.8125,168.5390625,85.6640625,168.5390625M91.171875,168.4921875C91.5703125,168.4921875,92.0078125,168.3984375,92.3828125,168.265625L92.0703125,167.046875C91.8984375,167.125,91.6953125,167.1640625,91.515625,167.1640625C90.953125,167.1640625,90.6015625,166.8046875,90.6015625,166.2421875V163.2421875H92.078125V161.875H90.6015625V159.984375H89.0703125V161.875H88.25V163.2421875H89.0703125V166.34375C89.0703125,167.6640625,89.859375,168.4921875,91.171875,168.4921875M96.046875,168.5390625C97.90625,168.5390625,99.1484375,167.125,99.1484375,165.03125C99.1484375,163.03125,98,161.7421875,96.2265625,161.7421875C94.359375,161.7421875,93.109375,163.140625,93.109375,165.25C93.109375,167.234375,94.25,168.5390625,96.046875,168.5390625M96.1796875,167.0859375C95.2734375,167.0859375,94.6796875,166.3046875,94.6796875,165.1015625C94.6796875,163.9140625,95.21875,163.1953125,96.0859375,163.1953125C96.9921875,163.1953125,97.5859375,163.984375,97.5859375,165.203125C97.5859375,166.359375,97.0390625,167.0859375,96.1796875,167.0859375M100.53125,168.3984375H102.0859375V164.15625C102.4375,163.6875,102.9375,163.421875,103.484375,163.421875C103.7265625,163.421875,104.015625,163.4765625,104.234375,163.5703125L104.5859375,162A2.015625,2.015625,0,0,0,103.7109375,161.8125C103.0078125,161.8125,102.3671875,162.1875,101.9140625,162.84375L101.7734375,161.875H100.53125M112.0390625,168.5390625C113.3046875,168.5390625,114.3984375,168.1171875,115.2890625,167.296875V163.1640625H111.703125V164.640625H113.7734375V166.6328125A3.078125,3.078125,0,0,1,112.25,167.0234375C110.4921875,167.015625,109.359375,165.71875,109.359375,163.6328125C109.359375,161.6171875,110.4140625,160.4765625,112.28125,160.4765625C113.0234375,160.4765625,113.8828125,160.65625,114.5390625,160.90625L114.9765625,159.5546875C114.25,159.1640625,113.328125,158.953125,112.3828125,158.953125C109.5546875,158.9453125,107.7265625,160.90625,107.7265625,163.8359375C107.7265625,166.65625,109.4453125,168.5390625,112.0390625,168.5390625M116.8203125,168.3984375H118.375V164.15625C118.7265625,163.6875,119.21875,163.421875,119.765625,163.421875C120.0078125,163.421875,120.3046875,163.4765625,120.5234375,163.5703125L120.8671875,162A2.015625,2.015625,0,0,0,120,161.8125C119.296875,161.8125,118.6484375,162.1875,118.203125,162.84375L118.0546875,161.875H116.8203125M125.4921875,168.3984375H126.609375V164.4765625C126.609375,162.7109375,125.6953125,161.7421875,123.953125,161.7421875C123.1171875,161.7421875,122.203125,161.96875,121.515625,162.375L121.875,163.5703125C122.4921875,163.296875,123.078125,163.1640625,123.625,163.1640625C124.5703125,163.1640625,125.078125,163.5703125,125.078125,164.34375V164.5234375C122.53125,164.5625,121.40625,165.203125,121.40625,166.59375C121.40625,167.7734375,122.1953125,168.5390625,123.4375,168.5390625C124.1953125,168.5390625,124.8203125,168.265625,125.2734375,167.7578125M125.078125,166.7265625C124.7890625,167.0234375,124.3984375,167.1953125,123.953125,167.1953125C123.359375,167.1953125,122.953125,166.859375,122.953125,166.359375C122.953125,165.7734375,123.5625,165.5,125.078125,165.4765625M131.1875,168.5390625C132.78125,168.5390625,133.921875,167.0859375,133.921875,165.03125C133.921875,163.0859375,132.8671875,161.7421875,131.3515625,161.7421875A2.28125,2.28125,0,0,0,129.5546875,162.6015625L129.2734375,161.875H128.234375V171.3125H129.734375V167.96875C130.109375,168.3359375,130.6171875,168.5390625,131.1875,168.5390625M129.734375,166.34375V163.7421875A1.5390625,1.5390625,0,0,1,130.9140625,163.1953125C131.796875,163.1953125,132.3515625,163.9453125,132.3515625,165.1640625C132.3515625,166.34375,131.84375,167.0859375,130.984375,167.0859375C130.4609375,167.0859375,130,166.8046875,129.734375,166.34375M139.171875,168.3984375H140.71875V164.3046875C140.71875,162.734375,139.8828125,161.7734375,138.5546875,161.7734375A2.4375,2.4375,0,0,0,136.828125,162.46875V158.4765625H135.3046875V168.3984375H136.828125V163.78125C137.171875,163.421875,137.578125,163.2578125,138.015625,163.2578125C138.78125,163.2578125,139.171875,163.7265625,139.171875,164.6171875M142.34375,168.3984375H143.8984375V161.875H142.34375M143.1328125,160.671875C143.703125,160.671875,144.078125,160.265625,144.078125,159.6171875C144.078125,158.9765625,143.703125,158.5625,143.1328125,158.5625C142.5546875,158.5625,142.1796875,158.9765625,142.1796875,159.6171875C142.1796875,160.265625,142.5546875,160.671875,143.1328125,160.671875M148.2421875,168.5390625C148.953125,168.5390625,149.625,168.359375,150.1796875,168.0234375L149.84375,166.84375A3.03125,3.03125,0,0,1,148.578125,167.15625C147.484375,167.15625,146.859375,166.3984375,146.859375,165.1015625C146.859375,163.859375,147.4296875,163.1953125,148.46875,163.1953125C148.90625,163.1953125,149.40625,163.296875,149.828125,163.484375L150.15625,162.1328125A3.9453125,3.9453125,0,0,0,148.421875,161.7421875C146.515625,161.7421875,145.28125,163.140625,145.28125,165.2890625C145.28125,167.328125,146.3828125,168.5390625,148.2421875,168.5390625M153.34375,168.5390625C154.9609375,168.5390625,155.9140625,167.7421875,155.9140625,166.4375C155.9140625,164,152.5859375,164.8203125,152.5859375,163.71875C152.578125,163.328125,153.0078125,163.0859375,153.71875,163.0859375C154.203125,163.0859375,154.7890625,163.1953125,155.3359375,163.3671875L155.6640625,162.078125C155.1171875,161.859375,154.421875,161.7421875,153.7578125,161.7421875C152.0703125,161.7421875,151.09375,162.4921875,151.09375,163.8359375C151.09375,166.265625,154.375,165.34375,154.375,166.5234375C154.375,166.9375,153.9765625,167.1953125,153.3203125,167.1953125C152.75,167.1953125,151.9609375,167.0234375,151.34375,166.75L151.0078125,168.0234375C151.671875,168.3515625,152.53125,168.5390625,153.34375,168.5390625"/><path style="fill:#FEB93FFF;stroke:none;" d="M88.953125,54.6796875L89.046875,75.4140625L75.015625,62.1484375L86.203125,113.3515625L99.2890625,128.453125L66.796875,144.9921875L101.4140625,147.6640625L106.078125,153.3203125L109.765625,142.5546875L127.28125,130.796875L124.9453125,109.4765625L133.203125,109.53125L121.234375,101.1328125L111.046875,108.0390625L104.7734375,90.3125M77.7734375,66.984375L102.9140625,90.2890625L87.3046875,111.4609375M121.1171875,103.1640625L128.734375,108.09375L113.4921875,108.21875M112.2578125,111.484375L124.6875,121.3046875L125.625,129.40625L117.9296875,127.5234375M114.0390625,129.1171875L85.3828125,144.734375L73,143.8046875L100.8046875,129.375"/><path style="fill:#FEB93FFF;stroke:none;" d="M55.0234375,45.7109375H59.0859375V27.1171875H66.2578125V23.5078125H47.890625V27.1171875H55.0234375M68.8515625,45.7109375H72.9453125V30.15625H68.8515625M70.9296875,27.28125C72.4296875,27.28125,73.421875,26.3203125,73.421875,24.78125C73.421875,26.3203125,72.4296875,22.2578125,70.9296875,22.2578125C69.390625,22.2578125,68.3984375,23.25,68.3984375,24.78125C68.3984375,23.25,69.390625,27.28125,70.9296875,27.28125M87.8203125,45.7109375H91.890625V36.109375C91.890625,32.2734375,89.7109375,29.90625,86.2265625,29.90625C84.3359375,29.90625,82.578125,30.578125,81.203125,31.859375L80.4921875,30.15625H77.5546875V45.7109375H81.6484375V34.578125C82.578125,33.84375,83.6328125,33.453125,84.8125,33.453125C86.796875,33.453125,87.8203125,34.578125,87.8203125,36.6875M97.234375,52.65625H101.6484375L104.140625,45.7109375L110.09375,30.15625H106.03125L102.15625,41.9375L98.515625,30.15625H94L100.046875,45.7109375M118.2890625,45.7109375H122.578125L130.578125,23.5078125H126.3515625L120.625,40.8125L115.1171875,23.5078125H110.3203125M143.5390625,46.03125C146.8671875,46.03125,149.7421875,45.0390625,152.109375,43.0859375V33.234375H142.640625V36.75H148.109375V41.484375C146.9921875,42.0625,145.6171875,42.4140625,144.078125,42.4140625C139.4375,42.4140625,136.4609375,39.3125,136.4609375,34.3515625C136.4609375,29.5546875,139.25,26.828125,144.1796875,26.828125C146.125,26.828125,148.3984375,27.25,150.125,27.859375L151.28125,24.625C149.359375,23.6953125,146.9296875,23.1875,144.4296875,23.1875C136.9765625,23.1875,132.140625,27.859375,132.140625,34.828125C132.140625,41.5546875,136.6875,46.03125,143.5390625,46.03125"/></svg>